/* XPM */
static char *_ceef0d15fd34a06e3d0143bbb1133ceMZPCFWMQzPu1St52[] = {
/* columns rows colors chars-per-pixel */
"60 60 223 2 ",
"   c None",
".  c #010101",
"X  c #090904",
"o  c #0B0706",
"O  c #171713",
"+  c #181804",
"@  c #281907",
"#  c #281410",
"$  c #383505",
"%  c #32290B",
"&  c #2B2B2A",
"*  c #282822",
"=  c #373735",
"-  c #3D3C27",
";  c #530A04",
":  c #45140A",
">  c #571707",
",  c #4F0601",
"<  c #67190B",
"1  c #7A1708",
"2  c #6C1409",
"3  c #4B2C07",
"4  c #65220E",
"5  c #6C2C0A",
"6  c #68250B",
"7  c #763802",
"8  c #6A2417",
"9  c #732212",
"0  c #7E2A17",
"q  c #7F2C18",
"w  c #792715",
"e  c #7E3220",
"r  c #444100",
"t  c #5C5600",
"y  c #7E4300",
"u  c #605A00",
"i  c #746F16",
"p  c #48473A",
"a  c #544F32",
"s  c #737039",
"d  c #444443",
"f  c #5E5D4B",
"g  c #595944",
"h  c #555553",
"j  c #5D5D59",
"k  c #7F4840",
"l  c #6A6945",
"z  c #71716A",
"x  c #797975",
"c  c #787877",
"v  c #6C6969",
"b  c #801F0A",
"n  c #802D1A",
"m  c #82331E",
"M  c #98331E",
"N  c #A23A1D",
"B  c #833321",
"V  c #893B27",
"C  c #874E00",
"Z  c #A75113",
"A  c #966900",
"S  c #9C7300",
"D  c #84700A",
"F  c #B46900",
"G  c #AA7E00",
"H  c #B97400",
"J  c #BE7D00",
"K  c #B77100",
"L  c #914A3A",
"P  c #AE4A27",
"I  c #AC4629",
"U  c #AE4829",
"Y  c #AB4526",
"T  c #B14E26",
"R  c #B3492B",
"E  c #B25123",
"W  c #B95D24",
"Q  c #B85D27",
"!  c #995646",
"~  c #907159",
"^  c #807F6E",
"/  c #00E400",
"(  c #968600",
")  c #958909",
"_  c #BD8000",
"`  c #B98900",
"'  c #B38F00",
"]  c #BDA703",
"[  c #B5AD00",
"{  c #938E32",
"}  c #A89D34",
"|  c #B6A539",
" . c #C58D00",
".. c #C38500",
"X. c #CA9300",
"o. c #CE9A00",
"O. c #D09F0B",
"+. c #D3A300",
"@. c #D9AD00",
"#. c #DCB300",
"$. c #DCB514",
"%. c #E2BD00",
"&. c #EDBD00",
"*. c #FEBE02",
"=. c #E3AE10",
"-. c #D9AD27",
";. c #DCB326",
":. c #D3AD34",
">. c #E0BE39",
",. c #D6CB04",
"<. c #E4C300",
"1. c #EBCD00",
"2. c #E7C800",
"3. c #FDC800",
"4. c #EED300",
"5. c #E6DA01",
"6. c #E8DD00",
"7. c #FFD100",
"8. c #FFDC00",
"9. c #F2D600",
"0. c #FFDC15",
"q. c #EAD015",
"w. c #FFE400",
"e. c #FFEB00",
"r. c #FFF100",
"t. c #FFF20D",
"y. c #FFF114",
"u. c #EBE100",
"i. c #DFD829",
"p. c #F1DC2B",
"a. c #F8DB3A",
"s. c #E8CB30",
"d. c #F9E82A",
"f. c #FFF32B",
"g. c #FEEB37",
"h. c #FFF33A",
"j. c #EEE43E",
"k. c #918E5B",
"l. c #999557",
"z. c #A29E52",
"x. c #ABA648",
"c. c #ABA658",
"v. c #B8B248",
"b. c #8C8B64",
"n. c #878668",
"m. c #9A9867",
"M. c #8C8A70",
"N. c #B08174",
"B. c #B2AE67",
"V. c #AFAB6E",
"C. c #DBB747",
"Z. c #C5B448",
"A. c #DBCA54",
"S. c #D3C44E",
"D. c #ECD657",
"F. c #EBCB4B",
"G. c #FFE54A",
"H. c #FDEB55",
"J. c #FFF45B",
"K. c #FFF244",
"L. c #DFD97D",
"P. c #F9D767",
"I. c #EFD86C",
"U. c #F7E666",
"Y. c #FFF56E",
"T. c #FFF267",
"R. c #FBE57A",
"E. c #FFF573",
"W. c #FFF479",
"Q. c #EEE87C",
"!. c #D849FC",
"~. c #FC46FF",
"^. c #0D98F8",
"/. c #449FFF",
"(. c #7A83FB",
"). c #7DBAFF",
"_. c #94938D",
"`. c #9A998C",
"'. c #919190",
"]. c #9C9B92",
"[. c #9A9A99",
"{. c #928C8B",
"}. c #A2A29A",
"|. c #A8A691",
" X c #AAAAA7",
".X c #B3B0AD",
"XX c #CBA79F",
"oX c #CCBDBB",
"OX c #D0BDBA",
"+X c #D9BEBA",
"@X c #D9D29B",
"#X c #FFF783",
"$X c #FEE698",
"%X c #FFF793",
"&X c #FFF89B",
"*X c #F1EC8F",
"=X c #D5C3BF",
"-X c #DED6B8",
";X c #D5CCAE",
":X c #EADFB1",
">X c #CCFDB2",
",X c #FEEAA7",
"<X c #FFF6B7",
"1X c #F2E7AD",
"2X c #FD80FF",
"3X c #CECCC5",
"4X c #D9CBC7",
"5X c #D7D3D1",
"6X c #DDDDCF",
"7X c #E1D2CD",
"8X c #E6D9D7",
"9X c #E8E2DA",
"0X c #FEFAD9",
"qX c #F8ECCB",
"wX c #FFCEFF",
"eX c #D8E6FC",
"rX c #E8E3E2",
"tX c #F5EDEB",
"yX c #F7EAE7",
"uX c #FDF5F3",
"iX c #FFFEFE",
"pX c #FEFAF7",
"aX c #FFFAE6",
/* pixels */
"                                                                                                                        ",
"                                                                                                                        ",
"                                                                                                                        ",
"                                                                                                                        ",
"                                                                                                                        ",
"                                                                                                                        ",
"                                                                                                                        ",
"                                                                                                                        ",
"                                                                                                                        ",
"                                                                                                                        ",
"                                                                                                                        ",
"                                                                                                                        ",
"                                                                                                                        ",
"                                                                                                                        ",
"                                [.[.o I I M 2 M R e . .                                                                 ",
"                              [.[.& I I Y I Y I I I I I I I I I Y 1 b I R # .                                           ",
"                            [.[.[.I I I Y Y P Y 1 2 N U U U U U I U U U I U I I I I I I }.[.:                           ",
"                          c c * o B R T E E E E E E T Q E T T E T T T T T b 1 Y P P P P ].[.4 4                         ",
"                          c x x x x ^ n.n.b.b.b.k.b.b.M.n.% $ Z W W Q Q Q Q Q Q W E E 3 ].].4 4                         ",
"                          x x = X p n.b.k.k.l.l.l.c.V.r $ c.:X$ l.l.m.m.m.m.m.m.b.b.l + - ].5 6 4                       ",
"                          d h > 7 7 y F F K J _ i i L.} x.t t i x.c.c.c.B.B.V.c.z.z.k.k.n.n.5 6 6                       ",
"                            X f 7 7 C H J  .X.+.@.+.+.) ( ( o.o.X.X.o.O.:.| { } v.x.x.i $ a l 6 5                       ",
"                              f l C A _  .+.@.#.<.%.#.#.#.@.@.@.@.@.%.$.>.C.A.-.+.o. .J K F s 7 5                       ",
"                              n.l 3 H  .+.#.%.2.q.4.1.2.2.<.<.<.<.<.1.q.F.D.I.s.%.#.+.X...K l.$ >                       ",
"                                s { ) [ [ ,.,.5.i.,.4.9.4.4.1.4.4.4.4.p.G.I.*Xa.1.<.#.+. .J K s 7                       ",
"                                  z.| ) Y.%XY.y.W.&Xw.8./.6.5.5.5.5.u.j.U.Q.*Xp.9.1.%.@.o. .K z.@                       ",
"                            7.Y.>XpX>XpXiXiXrX5XiXiX%XpX).^.%XS A G F.p.r.*XE.0.E.%XY.e.J.7.{ s s                       ",
"                              r.iX6XpX} ] S.:.,.' 8X7XwXiX(.A ` ' ` $XS eXeXiXiXe.r.8.w.E.y.Y.t.l                       ",
"                            7.e./ iX9.%XY.E.h.0Xw.7X8X~.~.S ` 3.*.$X$X .e.E.J.^.#Xw.&X%XE.f.r.Y.;X                      ",
"                        t.%XE.y.aXtXZ.G.7.iX4X7X7X-XuX!.,.' $.:X,X<X-.R.w.<XY.W.8.w.w.g.E.E.0.H.l                       ",
"                        7.7.g.<X#XqXiXiXiX8XiXiXiXf.e.J.*.P.pXiX,X-.aX*.' ` *.0XT.J.H.E.Y.Y.H.@X+                       ",
"                       XJ.U.E.7.J.OXOXiX] A.A.C.;X0Xw.w.E.*.>.-.) =.I.,XqX$X3.r.7.g.w.8.7.Y.+ j                         ",
"                      '.'.c . = 5X3X8Xg.8.w.<XpXuX3.r.w.e.K.w.w.Y.*XA.:.&.8.w.f.%Xw.&X%XE.E.3Xa                         ",
"                      '.'.[.'.'._.{.7X_._._.R.4X7.p j 6XD.-X8.8.f.7.w.Y.3X3X7.W.w.w.e.K.E.Y.h j                         ",
"                      . _.n q q n 0 OXn n q 8Xp  X}.}.}.].`.`._.`.|.}.rX.Xz 8Xa.T.g.G.G.oX3X4 h                         ",
"                        '.& , < 0 0 0 pXuXyXm V }.}.z ].].`.`.O M * * rX.X.XiXoXoX'._.'.yXh > .                         ",
"                        '.* 0 0 0 0 0 0 OX0 n B ].].j [. X'._.X m V L ~ ! ! XX! oXm n V 4X& .                           ",
"                        '.'.9 0 0 0 0 0 0 n n n B B # o j ]._.n m m B 8 ! ! iX5X4Xn n . OX4 .                           ",
"                        = '.: 0 0 0 0 0 0 0 0 < ; 9 q q e n 0 n 0 m m B ! V iXpXq q 0 iXoX4 h                           ",
"                          '.f 0 0 0 0 0 0 0 0 0 0 0 0 0 0 0 0 0 0 0 < > 4XB +XiXq 0 0 iX& 4 h                           ",
"                          '.[.9 , 9 0 0 0 0 0 0 0 0 0 0 0 0 0 0 n w w n 5Xq pXtX0 0 n yXh v                             ",
"                          '.'.w 0 0 0 0 0 0 n n 0 w , < 0 0 0 0 n n n 0 n tX8X3X0 0 n iX{.h                             ",
"                          '.'.. 0 0 q q 0 n 0 n 0 0 0 0 0 0 0 0 w n 0 0 ; ; B 8X0 0 . iXM.                              ",
"                            '.'.'.'.'.z . p O . 8 0 0 0 0 0 0 0 0 b 0 n n n 0 pXV q '.tXv                               ",
"                            . O [.'.'.'.'.'.'.'.'.'.'.'.'.j . g o o 0 n 0 0 0 0 iXoXyXiX=X                              ",
"                                                . o '.'.'.'.'.'.'.'.'.{.'.'.'.d o g '.h                                 ",
"                                                                    . . '.'.'.'.'.'.'.                                  ",
"                                                                                                                        ",
"                                                                                                                        ",
"                                                                                                                        ",
"                                                                                                                        ",
"                                                                                                                        ",
"                                                                                                                        ",
"                                                                                                                        ",
"                                                                                                                        ",
"                                                                                                                        ",
"                                                                                                                        ",
"                                                                                                                        ",
"                                                                                                                        ",
"                                                                                                                        "
};
