/* XPM */
static char *bbab3b9b5655428181f82e547d618eber3KOAAe1THiCSI5I[] = {
/* columns rows colors chars-per-pixel */
"80 80 78 1 ",
"  c #336D17",
". c #3F7C17",
"X c #367319",
"o c #377519",
"O c #3A711B",
"+ c #3A7518",
"@ c #3D7718",
"# c #38701D",
"$ c #3B771D",
"% c #3A741E",
"& c #3E771D",
"* c #387818",
"= c #3B7A18",
"- c #3E7A18",
"; c #3E791D",
": c #3B7420",
"> c #3E7622",
", c #3E7C20",
"< c #427F1A",
"1 c #427B1C",
"2 c #417C1F",
"3 c #427F1F",
"4 c #457E1F",
"5 c #417822",
"6 c #457A21",
"7 c #437A24",
"8 c #457B26",
"9 c #457E24",
"0 c #497D26",
"q c #45811F",
"w c #48811E",
"e c #49831E",
"r c #4C8223",
"t c #4A8623",
"y c #488024",
"u c #4A8325",
"i c #4C8526",
"p c #4D8822",
"a c #4F8D22",
"s c #4F8825",
"d c #498129",
"f c #528C22",
"g c #538A25",
"h c #578F28",
"j c #51892C",
"k c #578F2C",
"l c #579426",
"z c #5A9127",
"x c #559129",
"c c #589129",
"v c #5A9329",
"b c #5D9529",
"n c #5D9629",
"m c #5E972A",
"M c #58902E",
"N c #5C932D",
"B c #5D982C",
"V c #598F35",
"C c #5C9332",
"Z c #5C9630",
"A c #5D9135",
"S c #619929",
"D c #649D2B",
"F c #639A2F",
"G c #609D2E",
"H c #609632",
"J c #649F33",
"K c #649837",
"L c #67A12D",
"P c #62A82C",
"I c #66A234",
"U c #6AA231",
"Y c #6DA633",
"T c #69A434",
"R c #68A138",
"E c #6FA63C",
"W c #6FA93A",
"Q c #72AB39",
/* pixels */
"hrQagywQ-gSfb<bgvrQaf9qQ-iSfb1bggiQagrqQ@sSfb<bgzrQagryQ@iSfb;mhgiQfgrqQ-iSfb-bg",
"ogTwQr;gU6rwSwyi+gUyQr-gU6reSq3i+gTqQr;gU6yrS4qiogTqQr-gU6reSw3gogTwQr-gU6rwmqrt",
"lgvrPgwym-Fpx6p=lgvtPgwyS-Fpz6s=lgvrPgqrS-Zfh5g=lgvrPgqrS-Hpz>r=lgvrPgqrS-Fgz6io",
"Ds;s;bqw9vFq9i+oDi;s-brw9vDq9iooDg;g;bqq9vD49i+oDi;g-nqq9vFw9i=oDs;i;mqe9zFq9i+-",
"UogogL+WOx6s1y+vU+g+gLoW%z>s3yozU+gogLoQ%g5s<r+vUogogLoQ%x>i19+vUogofLoWOx>i1roz",
"QpF@9S@W-;i%xF+gQtH-9S@W@&g%vFogQpH@9S@W@&g%vHogQpF.ym@W-;s#vFogWiF-9S@W--g%xJ+g",
"xsEi.y4br@itA9=FxiWi<99by@srV9=FxiQi<94br@ssV9=HvpEi-94br@gtA9-FxgEr<93n0@ytV9-F",
"-I7,@g=<Qh6h%s4Q-T6;@g-<QM6h%s4Q-U5;@g=<Qh9g%s9Q-I7>=g-<QM6h%p4Q-I61@g=qQB6v%i4Q",
"qNZ5HAwTgoo>+gjNqBZ1CAqUgo+>+gjvqZZ9HVwTg++>@gjvyZZ6CA9Tg++>+gjvqZZ>ZAyUgo+>+giB",
"iKy;D8gxg@@=vJg%jHy;D8ghg@@-xRg+gK9;D8ghg@-+xJg&iK9;D8gvg@@-xRg&pK91D9gzg@@-vTj%",
"6g+ivr999ry3Q+go5g+ivr9r3r04Q+go>foivr999r99Q+gX>h+ivr9y3r94Q+gX6g+yzr999r94Qogo",
"By&i&ri0oi%sxqMNvy&y;yidoi%sxqABB9@i1i9doi%glyMBvq:s-ry0oi%phqkZB9%p1yidoi%ilykN",
"F-I#HU3EF94v%i@QH<T#ZI-EF94N@i@QF-T#BU1EF9qN%i+QD.I%DU9EF99l%i@QF-T#HT1EF93N%i-Q",
"rp9 EjghgrqD+96Drg9 Qjgxgr3Do95Bri9 Ejgkfr;Do06Dyp9 Ejglfr4Do96Bri9 Qjgxfr1So96D",
"rJyqS0133Q9iipHrrJy9S0q6yQ3yipFrrI9qS0163Q3iipBirJ9wv0963QtiirJrrJr9S0;9yQ9iisDy",
"Y=r9vgBg1yDpriY=Y-y9zgvh=iDrriY-Y-r9vgBg-iFprrY.Y399zgmg-rBprgY+Y-09vgvf=gBpygY+",
"giQfg9qQ@sSfb;bgxrQfgywQ-iSfn1bgzrQeg0eQ+gSfm-bggrQfg0wQ-iSfb-bgxrQag0qQ-iSfb-bg",
"+gTqQr;gU6rwSwqi+gUqQy3gU6rwSqqi*gY4Qr-gU6rwbqys+gT4Qt;gU4reSwri+gTwQr;gU6reSqyp",
"lgvrPgerS-Fpz5g=lgvyPf4rS-Fpz5g=lgmrPge9SqFtv6s*zgmyPgwyS-Fgx6p*lgmrPgeyS-Fpz6s=",
"Di;g;bqw9vFw9i+oDp;g;vrw9vFq9i+oBs;s;bqw9fFq9i*+Bg-p;bqw9vF49i*oDi-i;bqe9vDwyroo",
"U=gogLoQOh5sq9+xU-gogL+WOh6sqr+hT=g+gL+WOg5g19+vT@hofD+W;g5g<iozUog+gLoW%z6g;yoz",
"QpH+9S-W@;s%hF+gQpZ+9S-W@;i%hH+fQpF-9b-Q--i%hF+gQpH-9S@W@-i%hHogQpFo9S-W@&i%BZog",
"xiEi<94br@itV9=FxiEi<8qvr@itV9-FxsEi-r9lyogiV9-HxiEi.y4br@itA9-FxgEr.94br@itN91F",
"-T9@@g=<QM4h&i9Q-U9@@f=qQM6l%i9Q-I7;-g-wQN6x&iqQ-T6,@g=<QM9g&i4Q-I53-g-4QM6z%y9Q",
"qCZ6ZVwTgO+>+gjvyCZ1HArUgXo>+gjvqZZ9ZAqUgX+>+gjByZZ7ZA9Tg+o>ogjvqZZ5ZA4Tgoo6+giB",
"gKy;D8gzg@@=xIg&fK9;D9gzg@-+xIg&sKq;D9ghf@@+vRg%iKy;D8gvg@@-zIg;iK9-D9gvg++oxRg$",
">sXivr993r99Qogo>goivy9yqr09QogX6soizy993r99QofX>f+izr9y9r9qQogX6g+ivr9yyrrqQ+go",
"mq%p1iydoi%gzqMNB3%s;iydoi%pz9MBNy%s4iyd+i1ihyhZBqOp1rydoi%iv9kBB3:s;r0doi%ixyMN",
"J-T%FT1EF9qN%i+QF-I%FU1EF93v&i@QF1T%HU1EF93B;y@QF-I%FU3EF9ym%i@QF-I#FT1EF93b%i-W",
"rp9 EjgMgr;Dor6Drs9 EjgkgryDX95Dri9 WjfMgr1BX61Drp9 Ejghgr3DX95Drs9 Ejghfr5Doy6D",
"rJ0qm0163Q3iitFrrJ9qS0163Q3iipFrrJ0wS016qQ9iirFrrJ9wv0363QyispHrrJ94S0;9yQ4iirFr",
"Y@y9zfbg-iFpriY-Y-y9vgbg-impriY-Y+99vgBg-iDpisY@Y399zhvg-ibprrY-Y@r9vgBf.iBprsY-",
"vrQfg9qQ@fSfb;bgvrQfg9qQ-sSfv&mggrQfgrqQ-sSfb;bgxrQagrqQ@iSfb;mgxyQfh9qQ-sSgb;mg",
"ogUqQr-fU9rwSqqsogUqQr-gU9rwSqqs+gUqQ9;gU6rwSwqi+gTqQr;gU6rwSwyg+gTwQr;fU6rwSq4p",
"xgvrPgerS-Fpz5i=xgvrPgerS-Fpz6s*lgmiPfwrS-Fpz5g=lgzrPgqrS-Fpz>r=lgvrPgwyS-Fpz>i+",
"Dp;g;bqw9hFq9i=+Dp;g;bqq9zFq9i-+Ds-i;brw9vFw9i+oDi;g;bqw9vFw9i=oDi-i-bye9vDw9i=+",
"UogogUoEOg5g10+xUogogLoEOh5i19+xU-gogLoQOh5iq9+hU+hofDoQOx>i<9+vUogogUoQOh6iq9+x",
"QpF-9b@Q@1i%vF+gQpF-9m-Q@-g%xF+gQpZ+9m-W@&i&hF+fQpH=9S@Q@;s%xFogQiF-9S@Y@;s%vB+f",
"xiEi-r4l9@giV9=FxiEi-r4l9@itA9-ZxsEi.y4br@iiV9=FxsEi-94lr@gtA9-FxgQi-y3nr@siA9-F",
"-I9>@g<wQM1x%i4Q-T9>@g-rQh6v%g9Q-I9;@g=<QM4l%i9Q-I6,-g-qQN6h%p4Q-I7;+g-qQk6h%s9Q",
"qBNyZAyLgoo>+gjBqBZ9ZAqUg+o>ogjvyCZ3HAwUgXo>+gjvyZZ6HA9TgXo>+gjvyCB>ZA4Tgoo>+gjv",
"iK31D9ghf@@=xRg%iK31D8ghf+@=hTg%fH9&D8gzg--+hTg&iK9;D8gvg@@-lJg&gK9-Dygvg@--NJh%",
"5goizy9y3r99Q+gX5fXizr993rr9QogX>f+ivr99qr09QogX>f+izr9y9ry3Q+gX>f+yvr9y3r04QXgo",
"By%i3iyd+i%ghwkZBy%i1irdoi%ih9NBBy%i;irdoi%pz4VBmq:s-rydoi%ph9MZB9%p;rydoi%ihqMb",
"F1T%HU1EF9qBoi@QF1T%HU1EF9qN%i-QF-I%FU1EF94N&i@QH-T%FU3EF9yb%i@QF-TOZT;EF94N%i-Q",
"ri9 Qjgkgr1BX96Dri9 WjgMgi-Do95Drs9 EjgMgr3DX95Dpp9 Ejghfr3Do9>Dri9 Qjghgr3D+95D",
"rJ0qS016qQ9gipFrrJ0qS016yW4iipFrrJ9qS0163Q3iipFrrJ9qv0y63QytirFrrJr9S0q6yQ3yipFr",
"Y@99vgBg.iBrypY@Y@99vgBg-gmpriY+Y-y9hgBg-iBpriY-Y199zfBg-yBprgY-Y-09vgBf=iDrriY-",
"frQfgrqQ@iSfb-bgxrQagrqQ-iSfm-nfzrQeg0eQ+gSfm-bggrQfg0wQ-iSfb-bgxrQfgrqQ-imfb1bg",
"OfUqQr;gU4rwSwri+gTwQr;gU6remqrt*gY4Qr-gU6rwbqys+gUqQt;gU4rwSwri+gTqQr-gU6reSq3i",
"lgBrPgqrS-Fgx6p*lgBrPgeyS-Fpz6s=lgmrPge9SqFtv6s*lgBrPge9S-Fgz>pozgvtPgerS-Fpz6s=",
"Ds;r;bqw9vF49i*oDi+s;vqe9vDwyrooBs;s;bqw9fFq9i*+Dg-r1bqq9vF49i=oDi;p-vrq9vDq9ioo",
"Toh=gLoQ;g5g<iozUog+gLoW%z6g;yozT=g+gL+WOg5g19+vU+hofD+W;g5gqiozU+g+gLoW%z>s3yoz",
"QpC.9S@E@-i%hHogQtFo9S-Q@&i%BZ+hQpF-9b-Q--i%hF+gQtH-9S@W@-i%hBogQtZ19S@W@&g%vFog",
"vpEt.yqbr@itA9-FhgEr-r4br@itN9-HxsEi-r9lyogiV9-HxsEi<94br@itA9-FxiWi<99by@srV9=F",
"-I5>@g=<QM9g&i4Q-T53og-4QM6z:y9Q-I7;-g-wQN6x&iqQ-I7,@g-<QM9g&i4Q-T6;@g-<QM6h%s4Q",
"yZZ7ZA9Tg+o>ogjvqAZ3NAqTgoo>+gimqZZ9ZAqUgX+>+gjByZZ7ZA9Tg+o>ogjvqZH1CA4Ufoo>+gjv",
"iKy;D8gvg@@-zIg;gKq;D8ghg@+-xIh%sKq;D9ghf@@+vRg%iKy;D8gvg@@-zIg;iKq;D8gvg@@-xRg+",
">f+izr9y9r9qQogX>f+ibi993rrqQ+go6soizy993r99QofX>f+izr9y9r9qQogX5g+ivi9r3r04Q+go",
"BqOp1rydoi%iv9kBB9%i&yrdoi%yv9MNNy%s4iyd+i1ihyhZBqOp1rydoi%iv9kBBq:y;yrdoi%ilyAB",
"F-I%FU3EF9ym%i@QD=T#HU1EF94N%i-QF1T%HU1EF93B;y@QF-I%FU3EF9ym%i@QF-T#ZI1EF94N@i@Q",
"rp9 Ejghgr3DX95Drr9 Qjgxgr3Dor>Dri9 WjfMgr1BX61Drp9 Ejghgr3DX95Drg9 Qjgxgr3Do95B",
"rJ9wv0363QyispHrrT0yS0;9yQ4yipFrrJ0wS016qQ9iirFrrJ9wv0363QyispHrrJ99S0y1yQ3yipFr",
"Y399zhvg-ibprrY-Yor9vgBg-sBprrY@Y+99vgBg-iDpisY@Y399zhvg-ibprrY-Y@r9vgmg=iDrriY-",
"grQfgp9Q-sSfb;bgxyQfgrqQ@iSfb;BgxyQfgywQ-iSfm-bghrQagyqQ@sSfb<bgzrQfgrqQ-iSfb1bg",
"+gUqQy-gU6rwSwqi+gTqQr;gU6rwSw3g+gTwQr;gU6reSqrpogTqQr;gU6yrS4qiogTqQr-gU6rwSqqi",
"zgvrPfwrS-Fpz5g=lgzrPgqrS-Fpx6r-lgmrPgeyS-Fpz>s=lgvrPfqrS-Zfh5g=lgbrPgq9S-Fpz6g=",
"Df;i&nqy9vFq9i+oDs;g;bqq9vFw9i=oDi-i;bqe9vDwrrooDi;g&nqw9vDq9i+oDi;s-brw9zFq9ioo",
"U+g+gUoQOh6s39+xUohofDoQOv5i19+vUog+gLoW%x6g19ozU=gogLoQOg5s1p+xUog+gL+WOh5gq9+x",
"QpH-9m-Q@;i%hF+fQpH=9S@Q@;i%vFogQpFo9S-Q@&i%BHohQrH=0m-Q@;g%zHogQpH+9S-W@&i%hF+g",
"xsEi<93zr+itV9=FxsEi-94br@gtA9-FxgEr-r4br@ytN9-HxsEi<94by-gtV9-FxpWi-r9lr@itV9=F",
"-I5@@f=qQN6h%g9Q-I6,-g-<Qk5h%p4Q-I53og-4QN6v%y9Q=T6;@g=<Qk6z%i9Q-I63+f=9QN6l%i9Q",
"yCZyZVeTg+O>+gjvqZZ6ZA9Tgoo>+gjvwZH1CAwTgoo>+gjvqAZqZAwTg+o>+fivyCZyZAwTg@X>+gjv",
"fHq%S8ghg1@=xIg&iK9;D9gvg@@-lJg&sK3;D8ghg@@=xRg%gH3&D8ghg@@=hTg>fH3&S7ghg@@-hIg&",
">g+ivr999r99Qog+6gOivr9y9ry3Q+gX>goibi993ry9QogX>g+ivr90qr09Qogo>g+ivr9y9y99QXgo",
"v9;i<iy9oy%fzykvvy:s-r9doi%phyMZB9:g;yrdoi%shqNZB3>i;rid+i%pz9VNB9&i<iy9oi%glyNv",
"J-T%FU9EF93v%i@QD.I:FUqEF9yb%i@QF<I FI1EF94b@i@WF-IOFI1EF94B+i-QF-T%FU9EF93v%i+Q",
"rp9 EjgkfryDoy5Dyp9 Ejghfr3Do96Bri9 Ejghgr1F+96Drs9 Qjgkgr9DX97Drp9 EjgkfryDoy6D",
"rJ9wS0<63Q4iipHrrJ9qb0363QytirFrrJ9wS0;9yQ4irpFrrJ9qS0163Q3iirDyrT9qS0163Q4iipFr",
"Y-99zgNg-ibpriY<Y399zgmg1yBprgY=Y@r9vgBg=sBprrY@Y-y9hgBg-iBp9gY-T-99zgNg-ibpyiY1"
};
