/* XPM */
static char *_055c5f580354841843570ede03ec24a8Tdx97edKARPqLeW[] = {
/* columns rows colors chars-per-pixel */
"60 61 207 2 ",
"   c None",
".  c #010101",
"X  c #0B0502",
"o  c #0C0905",
"O  c #05050A",
"+  c #0C0B09",
"@  c #070808",
"#  c #130D08",
"$  c #050711",
"%  c #161515",
"&  c #181615",
"*  c #1C1914",
"=  c #16171B",
"-  c #18171B",
";  c #14181E",
":  c #1A191B",
">  c #1B140F",
",  c #27160B",
"<  c #231C17",
"1  c #26221C",
"2  c #28231D",
"3  c #3D2C14",
"4  c #1F1D20",
"5  c #041434",
"6  c #050E27",
"7  c #242324",
"8  c #2C2926",
"9  c #352F29",
"0  c #322C24",
"q  c #3D342C",
"w  c #3A352A",
"e  c #333332",
"r  c #3B3B3D",
"t  c #393737",
"y  c #402B13",
"u  c #453A2F",
"i  c #453C34",
"p  c #474328",
"a  c #58442E",
"s  c #4C4239",
"d  c #4A4239",
"f  c #52453C",
"g  c #54483F",
"h  c #5D4D3F",
"j  c #635E34",
"k  c #7E623F",
"l  c #031545",
"z  c #02145D",
"x  c #020E4A",
"c  c #072C45",
"v  c #021C77",
"b  c #02176C",
"n  c #054B6C",
"m  c #494747",
"M  c #5A4D42",
"N  c #574A40",
"B  c #5F5246",
"V  c #59514A",
"C  c #575756",
"Z  c #4C5054",
"A  c #615347",
"S  c #65564A",
"D  c #69594D",
"F  c #67584C",
"G  c #665C54",
"H  c #6D5E51",
"J  c #695F58",
"K  c #705F51",
"L  c #6D635A",
"P  c #6A6056",
"I  c #736355",
"U  c #746559",
"Y  c #7C6B5B",
"T  c #7F6140",
"R  c #646465",
"E  c #777573",
"W  c #935F25",
"Q  c #966229",
"!  c #BA742A",
"~  c #B5742C",
"^  c #A96E2D",
"/  c #C47324",
"(  c #8A6C4E",
")  c #816F60",
"_  c #847263",
"`  c #897667",
"'  c #897768",
"]  c #8D7A6A",
"[  c #837669",
"{  c #927E6E",
"}  c #8B7D70",
"|  c #AA9058",
" . c #968272",
".. c #9B8574",
"X. c #9F8877",
"o. c #95887B",
"O. c #8F8373",
"+. c #B38D65",
"@. c #A28C7A",
"#. c #A8927E",
"$. c #AD9271",
"%. c #B5B159",
"&. c #D49F6C",
"*. c #CBB374",
"=. c #E9A36A",
"-. c #F5B56D",
";. c #E8B776",
":. c #F3B673",
">. c #F5B779",
",. c #F5B976",
"<. c #EDAC6F",
"1. c #C7C150",
"2. c #CAC55B",
"3. c #CEC968",
"4. c #D2CE77",
"5. c #D4D178",
"6. c #011E85",
"7. c #011D8A",
"8. c #011D93",
"9. c #01258C",
"0. c #012C92",
"q. c #01389B",
"w. c #045192",
"e. c #12678A",
"r. c #014BA4",
"t. c #004FA8",
"y. c #0052A9",
"u. c #0058AE",
"i. c #0050A6",
"p. c #005FB2",
"a. c #0167B7",
"s. c #016CBA",
"d. c #0272BC",
"f. c #017AC1",
"g. c #0185C8",
"h. c #018DCC",
"j. c #0388C4",
"k. c #0191CE",
"l. c #019BD4",
"z. c #0293D1",
"x. c #02A5DC",
"c. c #02ACDA",
"v. c #02B4E1",
"b. c #02BDE6",
"n. c #01C7E9",
"m. c #02DCF3",
"M. c #01D7F0",
"N. c #01D2EC",
"B. c #8A8A8A",
"V. c #969695",
"C. c #9E9283",
"Z. c #A49383",
"A. c #AC9682",
"S. c #A1958A",
"D. c #B59B87",
"F. c #B2A695",
"G. c #B4AB8B",
"H. c #AEACAA",
"J. c #B4B0AB",
"K. c #B6B6B5",
"L. c #C6B98D",
"P. c #F6BD84",
"I. c #DCDA8D",
"U. c #DEDD9B",
"Y. c #D0CB92",
"T. c #FBC483",
"R. c #FEC882",
"E. c #FCCB8D",
"W. c #F6C787",
"Q. c #FDD58B",
"!. c #FACA93",
"~. c #FED993",
"^. c #FBD19E",
"/. c #FEDC9A",
"(. c #F6D497",
"). c #EACD92",
"_. c #D6D2A7",
"`. c #EAC6A5",
"'. c #FEDEA3",
"]. c #FAD9AE",
"[. c #FBD3B0",
"{. c #FCDCB5",
"}. c #FDDFB8",
"|. c #E0DEA0",
" X c #E5E3AC",
".X c #E2E1A6",
"XX c #FEE2AC",
"oX c #EAE8BC",
"OX c #E9E5B6",
"+X c #FEE5B4",
"@X c #FEE6BB",
"#X c #CBCCCA",
"$X c #C5C5C4",
"%X c #D6D6D4",
"&X c #DDD5C3",
"*X c #ECEBC4",
"=X c #EEEDCA",
"-X c #FDE9C4",
";X c #E1E1DD",
":X c gray93",
">X c #E6E5E4",
",X c #F3F2EF",
"<X c #F6F5F3",
"1X c #F2F4F4",
"2X c #F5F5F4",
"3X c #F4F4F4",
"4X c #FEFEFE",
/* pixels */
"                                                            e 4 r                                                       ",
"                                                      = ; 8 C.S.o.< : =                                                 ",
"                                                  E :  .X.@.@.#.A.A.A.A.: &                                             ",
"                                                t =  . . ...X.@.@.@.#.A.A.] %                                           ",
"                                        - - - - - ' ] {  . .X...@.@.@.@.#.D.1 4                                         ",
"                                  R = = - - = = _ ` ` ] ] { {  . ...@.@.@.@.#.&                                         ",
"                                : - - = - - 4 N ) ) ` ' ] ] ] F.;X@.X.o.@.@.@.#.=                                       ",
"                              - - - - : - - = U ) ) ) ) _ #X<X<X<X,X1X .....@.@.s -                                     ",
"                            7 - - = = = - - 2 I I Y Y Y C.<X3X3X2X<X2X1X .X.@...X.;                                     ",
"                            - - - = = = - 1 K H I I U Y <X<X%X<X2X1XJ.1XJ.{ {  ...X.-                                   ",
"                          = - = = = = = & 9 S D H K I U :XV.e e 2Xe e K.&X{ ' { { X.q :                                 ",
"                          - - - = - = % u u S F D D K K <X%Xe e 1Xe 9 3X{ ` ] { { {  .< =         Z = - % 8             ",
"                          4 - = - = < i i q M A S S D D L <X<X1X<X<X1X3X) _ ` ` ] { { { G = = - % V U I Y -             ",
"                        C = - = - M N f i u M M M B S D D G <X1X<Xm <XY ) ) ) _ ' ' { { S F F D H K H I A &             ",
"            R r m C m t = = - V S M M N f i N N M M B A S S <X<X,X9 <XI Y Y ) ) ) ` ` ' M M A A S S D D &               ",
"            = = - ; 4 ; = U K H D A M N g i f f g M M M V S F D K K K I I U U ) ) ) ) ` D M h M A A S 8 =               ",
"            - I K { ] ` ) Y U K D S A M f s i s f g g M M M A A F D D P K I I U Y Y ) _ ) f f f M N 9 ;                 ",
"            = L I { { ' ) ) Y U H D S M g f d i d f s s 9 - & & & : * 2 V G K I I U Y Y U s s f s % 4                   ",
"              - K @.{ ] ` ) ) I K H D A M g d * % & % = 5 e.d.f.g.j.h.e.; , ; > w L I Y A i i s - :                     ",
"              - f K { { ' _ Y Y U H D M % ; = 0.r.i.u.a.a.s.d.f.k.v.n.N.M.m.m.M.n & * D q q < =                         ",
"                & < ] ..] ` ) Y U 7 - % 8.7.0.0.q.t.y.u.a.a.s.d.g.v.b.N.M.m.m.m.m.m.n.% % % B.                          ",
"                  Z * 0 { ] _ 1 - 6 z z 6.0.8.0.q.r.t.u.u.a.a.d.d.f.g.h.h.z.z.x.x.c.v.b.b.R :X                          ",
"                        4 - = n 7.z x z 7.9.7.9.0.r.r.y.u.a.j.k.l.h.g.j.j.k.l.l.c.v.v.v.e.>X                            ",
"                          J.w.d.7.b 5 l v 6.7.0.6 l r.t.w.u.a.a.d.d.d.g.h.k.z.l.x.x.c.v.X :X                            ",
"                          2Xc d.7.7.7.7.6.6.v + A.D.#.. . y.a.a.a.s.d.f.g.g.l.h.l.c.. F.. 4X                            ",
"                          4X. s.7.7.7.7.7.6.O ` L I [ A.D.@.. . . . . . X o + + . S. .I Z.                              ",
"                          :X. d.x $ . . . . U L I I I I U _ D.D.q X OX@X@X{.A J  .I U I *                               ",
"                          4X. . +.:.>.-.:.>.o . o P L L I L I I A.D.@.. @X. { K I I 2 .                                 ",
"                            4XO -.,.-.,.:.,.>.E.$X#XL . . d P I I I ' O.@XY I D X %XV.3X                                ",
"                            4XR . $.,.-.:.-.Q.Q.$X#X%X#X#X#XH.. . < . @X@X, C $X>X. J.4X                                ",
"                          4Xd Q./.Y.-.-.-.;.~.Q.m 4X4X4X4X4X@ . . #XL.@X{.`.4X4X4X3XX                                   ",
"                          B.W.(.&.W.(.-.:.:.Q.!.W.$X4X4X4X4X2X. #X4XX @X+X`.4X4X4X$Xe                                   ",
"                            ^././.# /.;.-.-.Q.Q.,.P.&.& ;X<X2XV.# ^.].[.+X[.`.< N `.$X                                  ",
"                            . './.~./.u -.:.Q.Q.Q.R.T.P.P.P.P.!.^.'.+X+XP [.[.[.{.X                                     ",
"                              (./././.X -.-.Q.Q.Q.Q.E.E.E.!.^.^.].XX+X@X+X-X{.@X-X.                                     ",
"                              t ).~.X #Xa :.>.Q.Q.~.~././.(.. '.XXXX+X+X@X@X-X-X-X.                                     ",
"                                2Xr :X4XN ( -.W.Q.~.~.~./.'./.'.XXXX+X+X+X@X@X-X-X.                                     ",
"                                  4X    4XV.# >.>.Q.~.~././.'.'.XXXXXX+X+X@X-X@X.                                       ",
"                                            4X. @.P.~././././.'.XXXXXXXX+X@XoX.                                         ",
"                                              :X4X@ X *.~./.'.'.XXXXXXXXG.+ r                                           ",
"                                                  :X4X. D.+ . . . O . X                                                 ",
"                                                  3 2._.1.1.3.=X=X#XW / Z                                               ",
"                                                0 1.1.Y.1.2.oXoXr C ^ X u                                               ",
"                                              .   1.1.j 1.oXoX# . . @ =Xp                                               ",
"                                                I.1.1 4.3._.! / E s =X=X+ o                                             ",
"                                            @   1.1.q 4.o ! / o OXoXoX=XF.U.m                                           ",
"                                              U.1.I.| Q ~ Q _. XOXoX=X*X=XU.Y.  m r                                     ",
"                                          % U.5.1._ / ~ O |..X X XOXoXoX*X%.|.. M R.=                                   ",
"                                          . # w p . ! B 4.U..X X XOXoXoXoX3 *.k !.P.                                    ",
"                                        * R.R.R.R.R.. . . . . . . J.J.. . . -.p <.p O                                   ",
"                                        X R.R.R.R.R.. . . . . . . . . . . . X +.;.( m                                   ",
"                                        X >.R.R.R.>.$ . . . . . . o X . . . . E.!..                                     ",
"                                        r =.| &.<.<.& . k I I I I U L 7         C                                       ",
"                                            . . . 8     0 I > % . q L %                                                 ",
"                                                          I         I .                                                 ",
"                                                      . . . . % . . . .                                                 ",
"                                                      . + X . . . o . . .                                               ",
"                                                        I H L . . . G i . . .                                           ",
"                                                              . . .   . . . .                                           ",
"                                                                                                                        ",
"                                                                                                                        "
};
