/* XPM */
static char *d040c7ec339542d4b49962a3f4e6ce6dkqmpSMTMcIJUZJ2N[] = {
/* columns rows colors chars-per-pixel */
"96 80 170 2 ",
"   c None",
".  c #010000",
"X  c #090303",
"o  c #0A0A0A",
"O  c #0A0B01",
"+  c #17050A",
"@  c #0F1605",
"#  c #131E03",
"$  c #191606",
"%  c #141414",
"&  c #1B1911",
"*  c #1C1A1A",
"=  c #2F190E",
"-  c #26150A",
";  c #30190E",
":  c #230511",
">  c #2B0313",
",  c #2E0817",
"<  c #340012",
"1  c #3F011B",
"2  c #3A081C",
"3  c #340719",
"4  c #201D1D",
"5  c #381E12",
"6  c #182803",
"7  c #1C3102",
"8  c #1C2310",
"9  c #292301",
"0  c #332C01",
"q  c #3F240B",
"w  c #3F3601",
"e  c #362213",
"r  c #263610",
"t  c #232323",
"y  c #282828",
"u  c #2A2727",
"i  c #312D2C",
"p  c #342D25",
"a  c #393123",
"s  c #353535",
"d  c #3D3C3C",
"f  c #3A3736",
"g  c #42081E",
"h  c #53001E",
"j  c #44161A",
"k  c #492506",
"l  c #562B07",
"z  c #413801",
"x  c #4E2B19",
"c  c #452813",
"v  c #4F341F",
"b  c #56301B",
"n  c #553413",
"m  c #61350D",
"M  c #693C12",
"N  c #623B15",
"B  c #590020",
"V  c #703D23",
"C  c #294703",
"Z  c #2C4A05",
"A  c #2A4607",
"S  c #395B08",
"D  c #365707",
"F  c #3A5811",
"G  c #344E07",
"H  c #5B4E02",
"J  c #6E4014",
"K  c #724316",
"L  c #734619",
"P  c #7C4C1C",
"I  c #774819",
"U  c #45651A",
"Y  c #7C6700",
"T  c #514C33",
"R  c #6D4E2C",
"E  c #7A5C38",
"W  c #526B2F",
"Q  c #424141",
"!  c #494846",
"~  c #494848",
"^  c #504F4D",
"/  c #5E5E5E",
"(  c #565553",
")  c #66615B",
"_  c #766853",
"`  c #69654E",
"'  c #820035",
"]  c #96561C",
"[  c #A25A1B",
"{  c #816D01",
"}  c #877403",
"|  c #895B36",
" . c #A15F21",
".. c #85623F",
"X. c #906331",
"o. c #B06825",
"O. c #C36F24",
"+. c #C37227",
"@. c #C7762A",
"#. c #D57B29",
"$. c #932150",
"%. c #8A6041",
"&. c #997850",
"*. c #A47C4D",
"=. c #B57E55",
"-. c #807F7F",
";. c #648139",
":. c #7A9E46",
">. c #7CA047",
",. c #998303",
"<. c #A48805",
"1. c #AB9305",
"2. c #B49A05",
"3. c #B28012",
"4. c #BEA305",
"5. c #C1A605",
"6. c #FEB600",
"7. c #EEC600",
"8. c #8F8458",
"9. c #918659",
"0. c #9A8F5F",
"q. c #AA8457",
"w. c #B58E5E",
"e. c #9E8661",
"r. c #BA9463",
"t. c #C29B6A",
"y. c #C7A16F",
"u. c #CEA774",
"i. c #CBAA79",
"p. c #C4B67C",
"a. c #D2AC79",
"s. c #928E87",
"d. c #9F9D98",
"f. c #AAA69C",
"g. c #AFAFAF",
"h. c #B3AEA4",
"j. c #BFBAAF",
"k. c #BCBBB7",
"l. c #C7BA82",
"z. c #DFBA85",
"x. c #D3A890",
"c. c #C3BDB2",
"v. c #CDC088",
"b. c #D1C38E",
"n. c #DED39D",
"m. c #D8CD95",
"M. c #EFCA92",
"N. c #EFCD99",
"B. c #F0CE9C",
"V. c #DDD4A3",
"C. c #C4C3BE",
"Z. c #CAC5B9",
"A. c #D0CABF",
"S. c #E7DAA6",
"D. c #F0D3AC",
"F. c #E0D5BC",
"G. c #F4D7B1",
"H. c #F4D8B3",
"J. c #F1E7B2",
"K. c #F2E8B3",
"L. c #FFE8B6",
"P. c #FFF7BB",
"I. c #FFF4B3",
"U. c #D3CDC1",
"Y. c #D6D5D2",
"T. c #ECE1C7",
"R. c #FBEED0",
"E. c #FCF0D4",
"W. c #E5E5E5",
"Q. c white",
/* pixels */
"                                                                                                                                                                                                ",
"                                                                                                                                                                                                ",
"                                                                                                                                                                                                ",
"                                                                                                                                                                                                ",
"                                                                                                                                                                                                ",
"                                                                                                                                                                                                ",
"                                                                                                                                                                                                ",
"                                                                                                                                                                                                ",
"                                                                                                                                                                                                ",
"                                                                                                                                                                                                ",
"                                                                                                                                                                                                ",
"                                                                                                                                                                                                ",
"                                                                                                                                                                                                ",
"                                                                                                                                                                                                ",
"                                                                                                                                                                                                ",
"                                                                                                                                                                                                ",
"                                                                                                                                                                                                ",
"                                                                                                                                                                                                ",
"                                                                                                                                                                                                ",
"                                                                    . X y y y / /                                                                                                               ",
"                                                            X o y y y . . * y y / / (                                                                                                           ",
"                                                          % y . X y y y y y y y y / /                                                                                                           ",
"                                    .     .             . y y y y y y s s s s y y ^ / /                                                                                                         ",
"                                  p K.n.v.K.V.          % . y y s s s % s ! f.s * y / / t                                                                                                       ",
"                                . K.p.K.K.K.K.o       f % y y s s * s U.U.U.U.U.U.U.y / / .                                                                                                     ",
"                                  p.p.K.K.n.K.K.K.  . % . y y s . ~ U.U.U.U.y % U.U.y y / t                                                                                                     ",
"                              & p.p.p.K.p.K.K.K.K.K.& % y y y s s U.U.% % d.% % % U.y y / / .                                                                                                   ",
"                              S.9.p.p.S.p.K.K.K.K.p.% . y y s s 4 ( U.% % s.U.% % U.s y y / / .                                                                                                 ",
"                          . K.K.p.p.p.p.l.K.K.p.K.. % y y y s s s s U.% A.U.U.U.U.Z.s y y / / /                                                                                                 ",
"                            K.K.p.9.p.p.b.K.p.K.p.% . y y s s s s s ! U.U.h.U.s U.s o s y y / / .                                                                                               ",
"                          K.K.p.K.p.p.p.p.p.p.K.% o y y y s s s s i s s U.s ( f s f.U.~ y y / / /                                                                                               ",
"                          K.K.K.l.p.8.p.p.p.K.. % y y y s s s s s s U.U.s s f f.Z.s f A.s y y / / .                                                                                             ",
"                          ` K.p.p.p.p.0.p.m.T % . y y y s s s s s s s s s Z.k.s s d U.h.y y y / / /                                                                                             ",
"                            K.K.K.S.p.8.9.p.% . y y y s s s s s s s U.U.s s s s f s y y y y y / / /                                     y                                                       ",
"                            . p.p.p.p.p.8.% o * y y y y s s s s s s c.s y y y y y y y y y y / / / /                                     % C..                                                   ",
"                            . . . . % % % % % y y y y y y s s y y y y y y y y y y ( / / / / / / / /                                     * C.W.                                                  ",
"                            . . . . o % % % y y y y y y y y y u y y % . . &.w.w.w.q q q y y s / / o                                   . t k.C.X                                                 ",
"                            % % % % % . % y y y y y y y y y . $ q q q R M.M.M.E q N P . y y y / /                                     y i ) U.W.                                                ",
"                            . % % % % % y y y y y u y . k q c n P P I q q M.H.M.P Q.. . y y y / .                                     Q Q s C.Y.o                                               ",
"                              % % % * y y y y y * l l q.r.M.t.Q.Q.Q.$ P X.M.H.M.z.. . . y y / .                                     . Q Q s C.C..                                               ",
"                              % % % y y y y % r.u.M P *.G.G.r.Q.Q.Q.. . M.M.G.G.M.w.M.M.y y .                                       Q Q Q s C.C.X                                               ",
"                              . % % % y % % r.M.M.P P l H.H.M.q.. q.w.M.w.M.M.M.l l l l l l .                                     . f i i * k.C.o                                               ",
"                                % % % % % % % M.w.P P l H.H.M.M.M.M.M.l l l l P P P P P O.#.]                                     i * i i * C.C..                                               ",
"                                  % % % % % % M.P.P P l M.M.l l l l l P l P ) ) L.- P o.#.[ #.                                  . i k.i i * C.C..                                               ",
"                                  . % % % % 6.% 6.P P l l l P l l l P ..i.) S.l l l l l #.@..                                 ~ Q * Q Q s s C.W.                                                ",
"                                      % % % 6.3.I.P P m P P l P P P P P L.k l l l l l l P #.                                  Q * ! Q Q s g.C.W.                                                ",
"                                          . . . P P P l l K P P P P M l l P l P P l P l . .                                 Q * Q Q Q d s C.C..                                                 ",
"                                              t P P P l - l l l l l l l P l P P +.l P l #.                                d Q Q Q Q Q s g.C.W.                                                  ",
"                                                O P P . q P P P l P l l P l #.l #.l ] #..                               i i i i f Q s s C.                                                      ",
"                                              . # # . # n P l P l K P l P P #.P #.P N #.r                           s i i i i i i * * g.C..                                                     ",
"                                          C C . C C C # # P P P P l P P J P L P #.P #.0 >.              . .   = ; . Q i i i i * * *       .                                                     ",
"                                      A C >.. C C C C # Z C . P P P P P P #.P #.#.#.. 5.>.          . 5 b b . ; b %.s Q Q d s s                                                                 ",
"                                    # :.:.. C 7 C C @ 6 Z A 4.j . . P P P +. .P.R.. 5.. >.. 4 . . - b .   . - b b =.o s s s         .                                                           ",
"                                  # # A C 7 C C C >.# S A S S 5.j 5.4.>.2 2 . 6.6.. S C :.:.$ g . b e.a r.H.T.b b b =.d.    . X                                                                 ",
"                                # # C C C C A Z >.# 6 D C S C C 9 C F >.2 2 k l P I . C :.C { g b x M.. w.D.H.. b b b x.                                                                        ",
"                                # A C C C C F @ # # # A C D C C S C >.>.2 2 M P P P . ;.X C 4.B b b M.. . . . ; b b | .                                                                         ",
"                              . # C C C C # X @ . # # # S S C C S C >.:.2 2 > . n X . G B # 5.h . e = . w.u.M._ . o .                                                                           ",
"                              . # C . 5.5.5.O < . # # 6 S S C S S C >.W 5.5.5.w X H B C < . 0 h . ; . w.M.H.H.                                                                                  ",
"                              # 0 5.1.B h B B ' . B < . C . C S ;.C >.5.B B 5.B B 5.h C & . = X ; . a.M.N.H..                                                                                   ",
"                            . 5.1.B B B B B 2.7.. B B B C h B B C B B 5.B B 4.X h 5.Z C >.:.c q.; X y.G._ .                                                                                     ",
"                        . Y Y 1 h B B h h 5.,.R.M.F.h B C B B B C B B 2.. 5.5.5.5.X C D C :.. b . b . . .                                                                                       ",
"                        . 1 g $ 7.. B h 5.. M.M.M.M.# r ;.C S S U >.>.2 2 5.} . 5.g C D . $.7.b | p ' ' 7.                                                                                      ",
"                          . 1 . 7.X h 5.X M.H.H.M.. # C C C S G C >.>.B 2 3 2 2 2 B h h 4.z 9 X . ' ' ' .                                                                                       ",
"                            . 1 1 g { . z.G.H.H.H.E.2 h . . D C >.8 h B h B 2 . B B 5.<.X   . 7.' ' .                                                                                           ",
"                              X 1 Y . . w.H.H.H.N.  . 5.<.B B B B B B B B B . 2 . . 2 2 B     7.X                                                                                               ",
"                                Q .     r.B.M.M..   : : 2 X . <.4.4.} . . X 2 2 2 2 2 : B                                                                                                       ",
"                                          o         : : 2 2 2 g 2 2 B   . : : 2 : : , 2 %                                                                                                       ",
"                                                    : : : 2 2 2 : 2 B     . : : : + X                                                                                                           ",
"                                                    + : : 2 : : X e v           ; b b                                                                                                           ",
"                                                      . + . 4.. V | | |         X b |                                                                                                           ",
"                                                      . = b b V V V V V .         ; |                                                                                                           ",
"                                                      % . = b b b x . t *         . .                                                                                                           ",
"                                                      ~ . . . . . . .                                                                                                                           ",
"                                                                                                                                                                                                ",
"                                                                                                                                                                                                ",
"                                                                                                                                                                                                ",
"                                                                                                                                                                                                ",
"                                                                                                                                                                                                ",
"                                                                                                                                                                                                ",
"                                                                                                                                                                                                "
};
