/* XPM */
static char *e514201861104635d221f0888167c255Cm1fqB1jgjVSo1V8[] = {
/* columns rows colors chars-per-pixel */
"80 80 34 1 ",
"  c #C8932D",
". c #C99531",
"X c #CA9735",
"o c #CB9A3A",
"O c #CC9C3E",
"+ c #D09B35",
"@ c #D19D39",
"# c #D2A03D",
"$ c #D9A33D",
"% c #D2A042",
"& c #D3A242",
"* c #D3A246",
"= c #DAA641",
"- c #DBA845",
"; c #D4A54A",
": c #D5A74E",
"> c #DAA84A",
", c #DBAB4E",
"< c #DCAD52",
"1 c #DBAD56",
"2 c #DCB05B",
"3 c #DDB25F",
"4 c #E1AC45",
"5 c #E2AE49",
"6 c #EAB44D",
"7 c #E3B152",
"8 c #E4B356",
"9 c #E4B65E",
"0 c #EBB95A",
"q c #E5B863",
"w c #ECBE66",
"e c #E6BD6F",
"r c #EEC373",
"t c #EFC880",
/* pixels */
"66666OOOOOttw6666-OOOO3tt66666OOOOOOO-66OOOOOOOOOO66$  OO3tt66-OOOOOOOOO3ttttttt",
"66666OOOOOttw6666-OOOO3tt66666OOOOOOO-66OOOOOOOOOO66$  OO3tt66-OOOOOOOOO3ttttttt",
"-----OO:33ttw66$$=--OO3ttww066OOOOO-----OOOOO-----$$@XXOO3tt66-OOXXoOO33ettwwwww",
"OOOOOOO3ttttw66  $66OO3ttttw66OOOOO66-OOOOOOO66666  XOOOO3tt66-OO  XOOttttt66666",
"OOOOOOO3ttttw66  $66OO3ttttw66OOOOO66-OOOOOOO66666  XOOOO3tt66-OO  XOOttttt66666",
"OOOOOttttt6666666-OOttw6666-OOOO-66OOOOOOO-66     OOOOOttw66OOX  OO3ttttw66OOOOO",
"OOOOOttttt6666666-OOttw6666-OOOO-66OOOOOOO-66     OOOOOttw66OOX  OO3ttttw66OOOOO",
"OO:33ttrww66666$$,33ttw66$$#OOOO-66OOOOO--=$$XX*11OO:33ww066XX.  33ettww8--OOOOO",
"OO3ttttw6666666  1ttttw66  XOOOO-66OOOOO66$  OO3ttOO3tt66666     ttttt66-OOOOOOO",
"OO3ttttw6666666  1ttttw66  XOOOO-66OOOOO66$  OO3ttOO3tt66666     ttttt66-OOOOOOO",
"ttttt6666666$  ttttt66666OO3tt66-OOOO-66  XOOtttttttw6666$    XOOttw66OOOOOOOOOO",
"ttttt6666666$  ttttt66666OO3tt66-OOOO-66  XOOtttttttw6666$    XOOttw66OOOOOOOOOO",
"ttttt6666666=XXttrww665--33qww--&OO--=$$XX;33tttttww06666$  11233ww8--OOOOOOO:33",
"ttttt6666666-OOttw6666-OOttw66OOOOO66$  OO3ttttttt6666666$  ttttt66-OOOOOOOOO3tt",
"ttttt6666666-OOttw6666-OOttw66OOOOO66$  OO3ttttttt6666666$  ttttt66-OOOOOOOOO3tt",
"6666666666  1ttttw66  XOOttw66OO-66  XOOOO3ttttw6666666  1tt66666OOOOOOOOOOttttt",
"6666666666  1ttttw66  XOOttw66OO-66  XOOOO3ttttw6666666  1tt66666OOOOOOOOOOttttt",
"66666664$$XX2ttttw66  XOOttw66OO-66  XOO33ettww066664$$  1tt66666OOOOOOO:33ttttt",
"6666666$  OO3ttttw66  XOOttw66OO-66  XOOttttt6666666$    1tt66666OOOOOOO3ttttttt",
"6666666$  OO3ttttw66  XOOttw66OO-66  XOOttttt6666666$    1tt66666OOOOOOO3ttttttt",
"66$  66-OOttttt66666  XOOttw6666$  OOOOOttw6666666     ttw6666-OO  XOOtttttttw66",
"66$  66-OOttttt66666  XOOttw6666$  OOOOOttw6666666     ttw6666-OO  XOOtttttttw66",
"664$$--&OOttttt66666  *333386666$  OO:33ww066664$$  .XXttw6666=XXXXoOOtttttttw66",
"66666OOOOOttttt66666  1ttOO-6666$  OO3tt6666666$    XOOttw6666$  OOOOOtttttttw66",
"66666OOOOOttttt66666  1ttOO-6666$  OO3tt6666666$    XOOttw6666$  OOOOOtttttttw66",
"66-OOOOOOOttttt66666  1tt66-OO66-OOOO3tt66666OOX  OO3ttttw66  XOOOOOOOttttt66666",
"66-OOOOOOOttttt66666  1tt66-OO66-OOOO3tt66666OOX  OO3ttttw66  XOOOOOOOttttt66666",
"--&OOOO:33ttrww664$$XX2tt66-OO66-OO33qww665--XXXXXOO3tttt9$$XXoOOOO:33ttttt66666",
"OOOOOOO3ttttw6666$  OO3tt66-OO66-OOttw6666-OO  XOOOO3tttt1  OOOOOOO3ttttttt66666",
"OOOOOOO3ttttw6666$  OO3tt66-OO66-OOttw6666-OO  XOOOO3tttt1  OOOOOOO3ttttttt66666",
"OOOOOttttt6666666$  OO3tt66-OO66-OO66666OOX  OOOOOOO3tt66$  OOOOOtttttttw6666666",
"OOOOOttttt6666666$  OO3tt66-OO66-OO66666OOX  OOOOOOO3tt66$  OOOOOtttttttw6666666",
"OOOOOttrww6666666$  OO3tt--&OO66-OO66666XXXXXOOOOO33qww$$+  XX;33tttttttw66665--",
"OOOOOttw666666666$  OO3ttOOOOO66-OO66666  XOOOOOOOttw66       1tttttttttw6666-OO",
"OOOOOttw666666666$  OO3ttOOOOO66-OO66666  XOOOOOOOttw66       1tttttttttw6666-OO",
"OO3tt6666666666  XOOttw66  XOO66-OO66666  XOOOO3tt66666  XOOOO3ttttttt66666OOOOO",
"OO3tt6666666666  XOOttw66  XOO66-OO66666  XOOOO3tt66666  XOOOO3ttttttt66666OOOOO",
"OO3tt66666664$$XXoOOtt9$$  @----&OO66666  XOO33qww664$$  XOOOO3ttttrww665--OOOOO",
"OO3tt6666666$  OOOOOtt1    $66OOOOO66666  XOOttw6666$    XOOOO3ttttw6666-OOOOOOO",
"OO3tt6666666$  OOOOOtt1    $66OOOOO66666  XOOttw6666$    XOOOO3ttttw6666-OOOOOOO",
"ttw6666666  XOOttttt66$    $66OO-6666666OO3tt66666     OOOOOttttt66666OOOOOOOOOO",
"ttw6666666  XOOttttt66$    $66OO-6666666OO3tt66666     OOOOOttttt66666OOOOOOOOOO",
"ww066--=$$XX;33ttrww$$+  XX=66OO-6666666OO3tt664$$  .XXOO:33ttrww665--OOOOOOO:33",
"66666OOX  OO3ttttw66     OO-66OO-6666666OO3tt66$    XOOOO3ttttw6666-OOOOOOOOO3tt",
"66666OOX  OO3ttttw66     OO-66OO-6666666OO3tt66$    XOOOO3ttttw6666-OOOOOOOOO3tt",
"66-OO  XOOtttttOO-66     OO-6666$  66666ttttt     OOOOOOO3tt66666OOOOOOOOOOttttt",
"66-OO  XOOtttttOO-66     OO-6666$  66666ttttt     OOOOOOO3tt66666OOOOOOOOOOttttt",
"66=XXXX;33tte33--=$$  .XX--566$$+  660ww33211  .XXOO:3333qww665--OOOOOOO:33tte33",
"66$  OO3tttt3OO66$    XOO66666     66wttOOX    XOOOO3ttttw6666-OOOOOOOOO3tttt3OO",
"66$  OO3tttt3OO66$    XOO66666     66wttOOX    XOOOO3ttttw6666-OOOOOOOOO3tttt3OO",
"OOOOOOO3ttOO-66     OO3tttt1    $66OO3tt66-OO  XOOtt3OO66666OOOOOOOOOOtttttOO-66",
"OOOOOOO3ttOO-66     OO3tttt1    $66OO3tt66-OO  XOOtt3OO66666OOOOOOOOOOtttttOO-66",
"OOOOO33333--=$$  &113321111&  $$=----8ww--#XXXX;33ww8--665--OOOOOOO:33tte33-----",
"OOOOOtt3OO66$    1tttt1       66-OO66666OOX  OO3tt6666666-OOOOOOOOO3tttt3OO66-OO",
"OOOOOtt3OO66$    1tttt1       66-OO66666OOX  OO3tt6666666-OOOOOOOOO3tttt3OO66-OO",
"OOOOO66$       tt3OO66$  OO-66OO3tt66-OO  XOOttw6666666OOOOOOOOOOtttttOO-66OOOOO",
"OOOOO66$       tt3OO66$  OO-66OO3tt66-OO  XOOttw6666666OOOOOOOOOOtttttOO-66OOOOO",
"-----$$+  1111133<--$$@XX-----33qww66=XXXX;33ww066665--OOOOOOO:33tte33-----OOOOO",
"66666     tttttOO-66  XOO66-OOttw6666$  OO3tt6666666-OOOOOOOOO3tttt3OO66-OOOOOOO",
"66666     tttttOO-66  XOO66-OOttw6666$  OO3tt6666666-OOOOOOOOO3tttt3OO66-OOOOOOO",
"OOOOOOO3ttttw6666$  OO3tt66wttttw66  XOOOO3tt66666OOOOOOOOOOttttt66666OOOOOOO-66",
"OOOOOOO3ttttw6666$  OO3tt66wttttw66  XOOOO3tt66666OOOOOOOOOOttttt66666OOOOOOO-66",
"OOOOO33ettww8--$$>1133qwwwwrttww7$$  XOOOO3tt66666OOOOOOO:33ttrww-----OO&-------",
"OOOOOttttt66-OO  1ttttw66ttttt66$    XOOOO3tt66666OOOOOOO3ttttw66OOOOOOO-6666-OO",
"OOOOOttttt66-OO  1ttttw66ttttt66$    XOOOO3tt66666OOOOOOO3ttttw66OOOOOOO-6666-OO",
"OO3ttttw66OOX  OO3tttt3OOttw6666$  OOOOOttw6666-OOOOOOOttttt66-OOOOOOO66-OOOOOOO",
"OO3ttttw66OOX  OO3tttt3OOttw6666$  OOOOOttw6666-OOOOOOOttttt66-OOOOOOO66-OOOOOOO",
"33ettww8--XXXXX33ett33333ttw66$$@XXOO:333386666-OOOO:33ttrww--&OOOO&----&OOOOOOO",
"ttttt66-OO  XOOtttttOO3ttttw66  XOOOO3ttOO-6666-OOOO3ttttw66OOOOOOO-66OOOOOOOOOO",
"ttttt66-OO  XOOtttttOO3ttttw66  XOOOO3ttOO-6666-OOOO3ttttw66OOOOOOO-66OOOOOOOOOO",
"ttw66OOX  OO3tttt3OOOO3tt66666OOOOOOO3tt66666OOOOOttttt66-OOOOOOO66-OOOOOOOOO3tt",
"ttw66OOX  OO3tttt3OOOO3tt66666OOOOOOO3tt66666OOOOOttttt66-OOOOOOO66-OOOOOOOOO3tt",
"ww8--XXXXXOO3ttww<OOOO3tt66666OOOOO33qww66666OOOOOttttt66-OOOO&----&OOOOOOOOO3tt",
"66-OO  XOOOO3tt66-OOOO3tt66666OOOOOttw6666666OOOOOttttt66-OOOO-66OOOOOOOOOOOO3tt",
"66-OO  XOOOO3tt66-OOOO3tt66666OOOOOttw6666666OOOOOttttt66-OOOO-66OOOOOOOOOOOO3tt",
"66$  OOOOOOO3tt66-OOOO3tt66666OOOOOttw6666-OOOOOOOttw66OOOOOOO-66OOOOOOOOOOOO3tt",
"66$  OOOOOOO3tt66-OOOO3tt66666OOOOOttw6666-OOOOOOOttw66OOOOOOO-66OOOOOOOOOOOO3tt",
"66=XXOOOOOOO3tt66-OOOO3tt66666OOOOOww06666-OOOOOOOttw66OOOOO-----OOOOOOOOOO33ett",
"66-OOOOOOOOO3tt66-OOOO3tt66666OOOOO6666666-OOOOOOOttw66OOOOO66-OOOOOOOOOOOOttttt",
"66-OOOOOOOOO3tt66-OOOO3tt66666OOOOO6666666-OOOOOOOttw66OOOOO66-OOOOOOOOOOOOttttt"
};
