/* XPM */
static char *c2e901264e284acca9147c8cd7d25256frn5ZEMgodwmeZVJ[] = {
/* columns rows colors chars-per-pixel */
"80 80 167 2 ",
"   c #AF7B23",
".  c #A77730",
"X  c #B58028",
"o  c #B9822C",
"O  c #BF892C",
"+  c #B98934",
"@  c #BD8E3C",
"#  c #C1882D",
"$  c #C28C32",
"%  c #CA8C31",
"&  c #C38D3A",
"*  c #C69134",
"=  c #CE9436",
"-  c #C6963D",
";  c #CC933A",
":  c #C7993E",
">  c #D29137",
",  c #D2963C",
"<  c #D3993E",
"1  c #C6A235",
"2  c #BD9243",
"3  c #C19545",
"4  c #CA9742",
"5  c #C59B45",
"6  c #CC9C45",
"7  c #C09748",
"8  c #C69B4D",
"9  c #CC9D4A",
"0  c #D49D43",
"q  c #D89D43",
"w  c #D39E49",
"e  c #DA9F49",
"r  c #CB9F54",
"t  c #CCA245",
"y  c #CDA34B",
"u  c #D5A246",
"i  c #D9A146",
"p  c #DAA947",
"a  c #D5A34C",
"s  c #D9A44C",
"d  c #D6A94E",
"f  c #DBA94E",
"g  c #CBA352",
"h  c #D5A652",
"j  c #D9A652",
"k  c #D6AA54",
"l  c #DBAB54",
"z  c #D0A65B",
"x  c #D8A759",
"c  c #D5AB5B",
"v  c #DBAE5B",
"b  c #D7B056",
"n  c #DCB156",
"m  c #D7B55F",
"M  c #DCB25C",
"N  c #DFB95E",
"B  c #E2A246",
"V  c #E0A84F",
"C  c #E1AD55",
"Z  c #E2AE5A",
"A  c #E3B257",
"S  c #E1B35D",
"D  c #E1B95E",
"F  c #ECBA5E",
"G  c #CBAC67",
"H  c #D4AD64",
"J  c #DBAE61",
"K  c #D5AE6A",
"L  c #D5B264",
"P  c #DEB464",
"I  c #DEB965",
"U  c #D5B26B",
"Y  c #DEB56A",
"T  c #DEB96B",
"R  c #DCB571",
"E  c #D7B875",
"W  c #DDBB72",
"Q  c #DCBB79",
"!  c #E1B564",
"~  c #EAB662",
"^  c #E2BA65",
"/  c #EABC64",
"(  c #E1B669",
")  c #E3BB6B",
"_  c #E5BA6B",
"`  c #E4BB6B",
"'  c #E1BD68",
"]  c #E5BC68",
"[  c #E1B96C",
"{  c #E1B96D",
"}  c #E5B96F",
"|  c #E4BA6F",
" . c #E3BD6F",
".. c #E4BD6D",
"X. c #E5BF6F",
"o. c #EABD6B",
"O. c #F1BF6A",
"+. c #E3B672",
"@. c #E3BC71",
"#. c #E3BD72",
"$. c #E4BD70",
"%. c #E7BE70",
"&. c #E5BF74",
"*. c #E9BD72",
"=. c #E1BE79",
"-. c #E4BE7A",
";. c #EBB878",
":. c #DFC06D",
">. c #DEC177",
",. c #DFC27D",
"<. c #E3C065",
"1. c #EAC167",
"2. c #E5C16D",
"3. c #EBC16D",
"4. c #EEC76E",
"5. c #F1C26D",
"6. c #E5C173",
"7. c #E7C373",
"8. c #E1C175",
"9. c #E4C174",
"0. c #EAC371",
"q. c #EBC373",
"w. c #E8C276",
"e. c #EECA75",
"r. c #E2C078",
"t. c #E3C379",
"y. c #E7C379",
"u. c #E5C37A",
"i. c #E6C27B",
"p. c #E9C57B",
"a. c #E4C97E",
"s. c #EBCA7C",
"d. c #F1C573",
"f. c #F3C975",
"g. c #F0C57A",
"h. c #F3CA7C",
"j. c #DABE87",
"k. c #DCC284",
"l. c #E5C582",
"z. c #EAC680",
"x. c #E6CA83",
"c. c #EBCB83",
"v. c #E9CB85",
"b. c #EBCD8B",
"n. c #F2CD81",
"m. c #F8CF81",
"M. c #F1CD8B",
"N. c #EAD085",
"B. c #EDD28C",
"V. c #F4D284",
"C. c #F9D383",
"Z. c #F9D386",
"A. c #F3D489",
"S. c #F4D38D",
"D. c #F5D88E",
"F. c #ECCF92",
"G. c #E9D291",
"H. c #F6D093",
"J. c #F7D994",
"K. c #F7D799",
"L. c #FADE9E",
"P. c #FFE08B",
"I. c #FFE39C",
"U. c #FBDAA1",
"Y. c #FCE2A5",
"T. c #FFE9A7",
"R. c #FFEAAD",
/* pixels */
") Y ! P P J S ! ! P ! [ [ f.W =.A.6.9.'  . .[ [ [  .S . I Y P P M Y P M P S z ^ ` Y v v ! P Y P 3.P M Y P M P I ^  .....I @.[ $.` A *.T &.) ^ ) ' P [  .) ' 9.6.",
"! S ! v ! P x ! v S S ! P J P S M ^ @._ M I &.M *.9.' I ^ ) ) S ! ! P ^ Y ! P ..I ! Y ! ! ) ..( S M M P Y Y S  .^ ' ..) ..6.&.6.V.X.Y 2.' [ p.` ^ 1.' 9.o.&. .P ",
"P v ! v ! P v c ! P v c ! ! a P P S P v ^ I @.' @.&.[  .! ' P P P M P P c P M C.` ! v z P Y v ! P M ! P ! P ..P  .6.*.' 6.i.6.i.9.i.6.=.u.i.0.i.6.z 9.T ` l v v ",
"l ! P P [ ! w ^ ! P J ! M c c P P ! l v l ! P ! I @.' S ^  .M ) _ I ) Y I M P ( P S ( ! P Y ( c Y ! ` [ 4.I 6.' ` X.6.p.c.6.u.9.^ [ T I Y L P P M ` k l l ~ v v ",
"J ! P P P v i P P P P Y ^ C h M P P h.P J v ! v ..M v ! ! )  .6.S l ' M [ M [ P v ( ! M 0.P P M P l P M P 2.@.' w.6._ S s s 0 , < > , < q , = , < , s / x v 3.P ",
"S.Z S 5 v ! ! P P ! ! l S P P ! ! I P 4 ^ S M S l v M M k Z M P I ) _ -.^ I [ ! ^ C ^ M ! ( Y v ! T ! ..^ Y P l & = = % < % < < < B < 0 q 0 0 q < 0 j s l S ! y ",
"h.Y P ! m Y ! P v ( ^ A R P ! J S S v ! v M : a l v v d.M J v M u L v P ! ! ` ^ ` [ z P ( [ _ P @.` ` M M e $ < > i < < < < 0 a C u 0 q 0 a a f i f j d.l M ! P ",
"! ! P P P [ M P P ! I S / P P _ M ! S S M ! ! f.P S l S v S Z j M l l l l l a j l A M J C P A Z v & a a 0 > q ; ; q < w q V l a a h h a a l S x n v l ! ! M M ! ",
"P a Y P Z ! + P ! P P ^ P ! ^ M M 3.M P M M M v ! l M v l l L v l v l v b l l h.l j l l j x a q 0 & 0 ; a 0 A i s u i s a j s j l x l l l l l l ^ ( 9.9.6.) Y P ",
"P ) ' A Z S P P ! ! v m I P Y P Y b ! l v ^ P ! ! M l P C 3.M Z l l l f l l $ l Z l 0 l j e a a ~ a q a a w a h l l v M a v v ! v l l M ! l ! Z a k d k P :.b.[ ",
">.x.x.u.&.^ P T S P ! M 6 P P Y P I P I n t f ^ S ) P ` M ] ..` I I ! a S P M p s l f j l j j e w 0 0 i q i l h a M M M j ! P P P M P S l P I S S P l a s 0 h ' ",
"0 l P ..s.a.v.p.u.3.=.' V.' 6.' @.&.a 6.6.w.7.u.9.3.p.7.u.1.<.' 2.9.2. .^ M M v v s s j l x l j h j s x F ! k ! ! ..! l M M P Y ! u.S [ Y ! h.^ ! P M S z a a u ",
"a a Z 0 q v ( p.B.B.s.6.c.s.v.B.c.b.c.s.Y.c.B.G.6.s.s.a.u.9. .^ M ^ ! M l n C j / c l v ! x l j j a l x C Z L P C Y P P H M ! P P I M h ( L P M.v M M M ! P x j ",
"M l j 0 0 q q : k $ s l l l c l l f f s a u d.s s F u f p A l l M l v S Z v l l l A v a v l v j j h l C L ! J ! Y T ..Y M P v ! ! P l c ( ! p.( P v P P P P v _ ",
"P w P x s j 0 u u ; q 0 0 < q u u q a q B p ` l C p S 1.k M M P ^ ' [ M n S ^ M M M v l v s v c l v v M L M v Y Y Y h ( ! P P P ( P P ) ^ ` ! v ! [ M ^ M M P P ",
"T M ^ M P M l s l f s l k n l l l ` M M M P ^ ' P  .<. .n s.u T ..^ ' &.` ' ` P M ! M S f v ! v M v 5.! M P ! I v M S 0.Y Y ! ! ( P ! M v ) c P v b Y P ` P ^ ) ",
"P P P ( ^ / ^ Y P l v _ M ! I + M M  .M  .<.n ^ I I <.^ ^ P.' m I ..] ! P ( ) @.I P ' j S v S S M M P Y Y ( P ! ! ( ! l ! Y ! P .. .! c M ^ ( P Y M M Y P [ P P ",
"q.I ^ ` ^ [ w M P T I T .... .k ! ' T ) 2.W [  .T S.V.9.I 2.@.[ &.` y ` 3.0.S u.^ ' ^ Y P ! P M a ! J P P P M L M L ( ^ P v M P ! ..Y j S M ^ P l Y T P P Y P P ",
"[ h...M [ [ R @.$.I ` I _ ..I s...P ^ &.@.p.b &.9.9.&.u.T P v l a j v ! P 2.9.s.I [ I ' I M 1.! ! ! v P P P P k v ..' ! M ! ! &._ w.P Y ^ ) P v P P L P ! 9.P P ",
"[ P ' M ..u.' ` ` [ * ) S D T I ' &.@. .6.e.9.^ [ [ P C l v s a a s f 0 l L Y &.>.6. .2. .T ^ T q.( L &.I P P ) ! 0.M ! P ! ! ( P p.Y y ! ; Y Y l Y Y P P ! ) Y ",
"S.' ^ @.&.-.&.! S _ _ I ^ @.'  .*.&.[ &.9.^ T r.Y v w j l *.v l a l s o l * x v I [ 9.e.@.&.^ u.'  .I  .P I P ! ! ( L P P P Y P P P Y M M ! h.Y 2 T P I @.6.T  .",
"V.I @.@.&.9.3.&...9.2.^ @.6._ @.Y s.^ &.u.r. .n k a s a P   k v M S M f v l d j l h P ^ @...6.W u.<. .*.&.^ ^ &.( ' o.^ l P Y P  .P P : P -.V.@.T 2. .3.^ 2.I &.",
"*.r.9.I 6.' _ ` I 6.@.9.&.M &.&.T H.-.9.` ( ! $.h s v c l ! M ! Y M ^ ! P P J ` a l k v S M P ' [ [ ! [ &.7.u.u.&.W w.X.&.T ^ ^ 3.) &.2.u...6.9.6.c. .u.` u.^ 6.",
"p.I b r.6. .6. .s.@.2.@.T 6.-.S.9.7.9.[ S d.x l v e.! ^ ) T j ( ^ P ( P [ f.g c 5.L Z j x a a j l l ` h ! j Y n.&.9.u.c.=.u.9.g 6.&.<.u.9.[ ! l k F 0 ^ ^ p.6.c.",
"u.6.6.u.7.r.u.T 6.6.9.r.V.p.r.9.7.u.6.I v v O.x k ( P ! P ....S P P Y ! ! 0.Y Y P Y ! P l s s l l l k k l s v l M P ^ [ &.W u.&.9.9.[ Y v v j g.h j j k l ! -.i.",
"e.u.u.u.7.u.u.3.2.L u.9.Y.9.t.u.u.&.! v S s d.&.c ( ) l P Y Y &.j ! o ^ n P ! ! I P ! 6.P P S k c M l v x V l l l l v x v P n ! n Z j f # l j x l l v l h ! M g.",
"~ 9.u.9.2.r.<. .c.2.p.9.2.9.6.9.R P h l l 5.^ l M P ! f Y P ! u.M Y I c I M L ! P P M P ! P 3.k l ( l f M M x a u s x l j s ^ j a j h w j j l v h P 0.M v l l v ",
"P ^ ^ 2.:.T u. .9.i.u. .U.9.6.R P s l l v P ^ ( P Y v S P Y Y l I T Y M Y v P M P ( M ! M n P P ^ A ! x P h k a k c x l q j l j j x l l s a S ! ) v P ! v l f x ",
"j l l T I v.>.T 1 a.6.9.&.[ Y P M l k P c M ( 0.c P ( ( v Y P Y Y - ( M P v _ P Y M P P l _ ( P P ) 0.P J P l v M v v s f j C v l C ! 6 J j ! P ( ( ! ! ` M 7.v ",
"Z L v ! I T 6.T  .&...v Y ) v Z v v S P ! l e.P n M 2 ! @.v c Y P ! ^ ! [ ( I M f.n _ ` P ^ P P l M P P P P ! k S S c S M l f x M s v S ! P ! ! ` P [ P [ v ( v ",
"M S L v P ) Y Y M c M k c S Z v M M 0 M ! P ^ ( 6.P M P q.^ P ( P Y S c.! ( T T ..) I I I 0.c ( ! ` Y Y P ^ p.! P ( h.! l P o.l S v c P s [ ! S P &.n Y Y P ^ ! ",
"L l P P P M v y M P M M v q.P M P P P P ! M P P v ! P ! Y P ! ! I P ! ! M ! P P I P P M ! ^ ` ! M v L Y M ! P ! S Z l S o.a P M v h.S P P y ) ! M Y P P P P P M ",
"! S S P v J ! P v ! M P g.M M I x I ' M S ^ ) M M P ) ! ^ P P P I v Y M ( 3 L S L S P M [ I [ S P T Y Y P P Y M P ! l P v M P X.( ` M S l ^ c ' Y ` P Y P P P ` ",
"P v v P P l A ( P M M P M M S l I S I W 6.&.R ' P P S l ( Y P L [ P ! P ! P ! ! ! k ` l l l M @.I $.@.[ ` _ M ( D ) @.P M 6.M _ [ / P L l v P P M M M M I L P P ",
"( ! P P P S f.c M P M M S ' M .. .P I  .2.6. .7.) ^ ..^ P P n v n Y ^ ` P ! ! P M P ( M ! l v l l ! $.0.( &.! $.I @.@.! P ! ( S v v l P M p.! P P Y M c P P Y Y ",
"P P P ! P ! P ^ P ! S ! ^ I .. .6.' g p.u.7.p.u.u.u.6.6.^ W M ! Y P P J Y P Y P ! Y ( ( P P M M c v v x v S P P P P v v M l j M l ! ..M ! ! d.P v Y S T l v ( ` ",
"7.! P n M ! ^ Y M P _  .^ 6.6.u.N.p.N.9.v.x.x.x.c.p.T r.u.6.6.` ..P ( P P ^ c 9 Y Y Y v P l.P P _ l v v x x v v j v v x S c R A P P ! Y P ! ^ 3.h Y ^ Y P P ( P ",
"( v ! ) P P v ^ K.&.@.T u.p.r.a.v.p.x.v.v.b.x.c.u.s.x.e.s.2.r.' 6.I Y Y ( Y ! h.Y P ' v &.G z v l a M P v S S v x Z h Y M M c M ) ) q.P [ 5 *.L c P P P P P ! ( ",
"[ ( P P I -.I ^ 9.w.r.a.6.c.w.z.a.6.>.) L v I T &.v.>.7.u.a.0.' u.u.[ &.M ! Y ! Y P H J P G +.M P M P Y v ! P ! ! l P S J ! ! ..P P [ Y P Y P ( [ ! M P S ( ! L ",
"M Y [ I  .@.6.*.v.a.p.9.'  .I M l q u , , w q u k + g g R b.k.u.l.Q L T U K X.l P K H H K G Y U -.Y 3 ) H Y l L ! n c P ^ ) ! M P !  .( ( v P  .! P c M Y Y ( P ",
"Y [ ^ ..u.9.` ' [ I J c l s s i u a , a h w j a l q ;.4 j H Q b.k.l.s.E I @.z Y K v U 3.H K R Y H z.L z.P M ^ ^ ! ! P v ! M P ^ ( ! Y v P P c ! M Y ^ P a Y I  .",
"' ' M Y ^ Y l h C j j s q h h j h l C x l C j x z g e r e j 9 Y >.F.G.j.9.R Y r.L M r.L P U U Y H Y ( L K H K I P P P ( [ ^ ..T P v ) ! P Y P P v P v P I P ( z ",
"P c S P v l s H l s j h h C v P M ! v ! J Y P v l v l x h s e 0 p ^ z.c.^ u.&.9.T ^ v P P Y P Y ! S v P P P Y P Y I p.) ' P [ M ! S H P _ P P P ( ( P Y I R P I ",
"v c S S P v v l S l M P P J ! P P ^ ! S ! ! ( P ` ! z P v Z s 0 e q M -.x.l...r.@. .v.c ( X.Y _ 9.M P Y [ M M I T  .@.) ....^ l w ! M Y P Y Y Y Y I ( n P ( P P ",
"( Z M v P P M ! ! ( ! Y M M P P Y ^ / P P ! M P P M ! Y ! P v l ; , q s [ z.0.9.u.n.&. . .M ! M ` ! [ ! &.) Y ^ @.` P ^ ! M S S P P P P M ! ! Y [ Y Y Y v P M T ",
"! P ( P P v l P &.h.! P v c ) M Y P M ! P Y ( c ( v ! Y Y M l f Z w < w w k W p.u.u.3.' &.I ..` M J.3.@.[ &.' ^ &.Y ! P v a l M P P h.v P P M ! Y P P ) P M l P ",
"Y Y ^ P l +.! v P P ! Y 0.( n l ! ) c ! Y Y ( l Y Y ! g.@.! 9 L v x k s u q h P 3...p.i.u.u.-.[ ^ =.u.2.&.*.I T I ! M v v v l M ! ! P n ( P c P P M &.! P P Y ! ",
"v v P P M M Y ! Y P &.S M P T P P ! ! P ^ ( v / M ( P ! L ( ! M P l l l 0 s q 6 l v 6.9.w.u.k.z.s.6.i.9.z.! ^ S v l 6 a x P ! P P ! I v ! ! ^ P v P T k ( Y ! Y ",
"P P ^ ! l c N b y z P ! P P P P I P M / P ! P ( P S P P I P P P I ^ P v l a s a w w x v ! 0.T 2...T @.) ! 0.v l w o.l v l P ! P ! ! ^ ( ( P P y ( ! P Y P M ( P ",
"P M v ! P Y P T I S ( P Y P R ( W ! ! P I ! Y P Y ! ( Y l Y f P 0.l ! P v h a 0 f q q 0 p h k v c f ~ v x j s e l 5.S J ..M ! P ! M M ' I P ! [ P P 9 S P v [ P ",
"( Y h P Y k Y Y ! c ) M P T &.) @.W 9.P Y I ` M z M h.! M Y Y P Y P ( S Z J l l Z s s ; 0 B s 0 a a h a j j l l l k v ( P M P ^ c 2.6.M [ S M P ! Y P P P T v ( ",
"c [ 0 M ! ^ h.P ^ ' [ _ 6.&.t 6.T r.&.L I &.&.P k Y Y n P ! h.P P ( ! P ! ! l x x x j 6 h h a s j 0 a j j l ! l v P ! P I Y Y P I  .2.^ 9...6.) l ! / Y ! ! ^ ! ",
"l ! T Y c P ] Y I t.6. .>.6.Y x.l.p.2.p.,.9.I v M ( P ( P ! ^ 8 ( ( ( P P ) 6 9 P l j l a h l s / s j w j l n l S P l P P I ! M I u.>.u.A.p.s.D ! l ( c P v v Y ",
"l ! l P I [ I &.9.p.u.z.N.p.z.2.0.s.u.a.a.p.&.9.9.M I P v J 5 ' L ! P ( P P P [ ] P l x l v l k 9 l s v v S l l @ S S ! P v `  .u.0.i.c.a.&.p...' [ ` ! P J Y P ",
"Y P Y I &.<...u.b.l.I ..Y S l l v f M ! [ p.p.@.' &. .^ M P l 6.Y P Y Y S P T P M P v ~ v v v v v d.J v d.A M ( S M M ! !  .u.^ u.6.T M ! M s.u.9.I ^ b v [ S ! ",
"p.&.u.w.p.u.l.R.Q 2 x l h a l 4 j q j k a v ( 0.u.u.9.@.) P M M M P R P l ! Y M P Y P M M S P P v J v ! H ! M ( ! P P ^ &.' u.9.P v 5.l l a x ..y u.6.I Y k ( ..",
":.p.u.5 I P v l x j O.l S Z v v v s l v l e P x n P ' 6.&.9.M P y ( P P P g.P ! P P ..b ! ! ! P M l P M M P P M M ^ T 9.b.7.! @ ` p Z j l x l M n u.9.P c I ..6.",
"6.,.M n f j s s 5.l l v J M Z l ! ! ! J v H c s u v v ! 9.&.6.( Y c ) _ Y -.! M ` T 7.v ! ! S M P ! P P h.^ D &.9.r.r.9.I M a a l j S P P S l l a M 9.p.6.6._ u.",
"a s h p z l v l S v P P l Y A v l h.P Y v S J M x l a v w.` &. .) ! ( Y l ! j S ! +.^ ) ^ c I v ( ! ^ ' &.@.[ 9.P Y c M a l l v P l Z 2.l ^ P ! l w x ! ' M M v ",
"w l f l v X q.v I.P 6.M P Y T P ( g [ M M Y ! ! L k M j 9 k Y T &.X.v _ T l y P M P l l P P P T P I W Y P j a 6 q l u l a l v P ! l c ! V.P P k v l s C a j a j ",
"C j M P P q.Y ! Y M ! v Y l P P ! M ! P P ( J ! M P M l v l a l ! &.' W ] Y I ) ( Y ! C M Y ) 3.` I h l l l l j l x x l M ! S Y P P P P ! T Y ! M ! l l a s l x ",
"P ! ( w.P ) s.T Y ! R ! Y Y P Y P P P P P M P I ! M 4 M P a l l k v ! Y T P ` P T I ( z ) g T M ! l h l l l v M v v M P ! P P S P Y M P Y Y P P ' R ^ v v c v P ",
"/ p.! ( ! ! P Y W P L.( v M b c ! [ c Y ( [ ! Y ! M ! Y ! ! P c c a l x ! ! ! ^ ! _ [ ! c v x v x a j M l M P P P P M L P Y c [ [ 7 ^ ! T Y Y ! ! L Y P P S Y P ",
"_ I v P ! Y ' v P ( M Y w ! M [ ( v M ! Y P c P P [ [ l 6 P ! ! M c v ;.! l ` l h v v j l l ! x M v P ! P P P ! M ( P ( Y P ! ! P ^ M 0.P 9 ( P c M S C.&.P P P ",
"! S l _ ! m.) ! P Y ! M S P c 3.! Y _ M ^ M M P P Y P a ! L P Y P P M Z 9 l ! j l v a p k n M P z M x ^ M M ! q.P P M ! c P P ^ ! S _ [ M P P c S P P ! ^ x J P ",
"p.+.` ! ' ( I ! P  .^ ^ 9.! _ ( ! &.M l U Y I P L I ! P Y Y Y ! P ! ! L ! ! L M a v Z H f P P P ! P Y 4.M h.^ q.P Y P Y P ` R ! v P c P P P v P ! c X.n ! ^ Y Y ",
"! M ' 3 I [ @.) c T ' u.`  .' ` ' P ( P Y P  .M ! ( P [ P P ! P P ! P ! P +.! ! v ! J P M M L M M P P c.^ P ! M M ' I Y I v P ! ! ^ ! P ..[ P / ! P Y P ! M P P ",
"! M P P Y I P Y @.` &.9.y 6.9.W &.2.I M M ' _ ! ( =.! P I P P Y P ' M P ! P ! ` ! P ( v M ! ) ^ M ^ ) l.&. .T n ^ ^ ` ! ! P P P X.! P P n S w.+.v Y P P M P Y P ",
"P [ h c l ( U l S x M l M M <.u.c.u.9.r.N.S <.6. .` M c ' M ^ [ M M I M D.M I ) ^ 9...9.9.&.6.r.6.9.! M P M f.k v M P P P M l P P v ) P Y P ! H ( P M M @.[ h.! ",
"Y Y I ( ( M Z S v S C l 3.v l a 6 j I r.u.c.2.u. .u.W 9.r.r.r.-.a.t.<.p.p.a.u.p.2.2.&.T _ n l a l l l x M M ( ( Y Y P P [ c [ ! Y ( l M P Y f ! M v M P P c Y ( ",
"O S ` Y I j ( &.Y I / ! / M M v s a s c s l l S ^  .' 6.l.p.F.x.p.6.@.^ I c v v l j h k l i f l v v J P P ! S v Y k Y P ! Y S v M M P _ M ( M Y Y Y Y P Y ( M M ",
"$.^ W T T P _ _ M ! P M P P ^ ! S M v v x u k h a a 0 s S a v s a u s 0 0 j v l l k l l v l k P ^ M ! P ! P j ! ! Y M ! P ( P h.Y ! n M ! P ( v Y I ! Y ) c P ..",
"( h.[ ` [ ) &.^ T ) I P I _ ! Y P P P J v M M # ..l l l g S s l $.l l j C X.j v k M h / P P ^ M v.T M P ! ( ^ P P ! g.P v P ( M P P R P n P P P P P Y P ) g.k P ",
"s.S ' &.[ &.&.P  .@. .N M.P I  . .Y P P P P P ` l M a d M v v v J H J C S S f.P P P P Y ! P P P V.) P P ` J Y v Y L ! S ! v ) ! P Y P ! P ! I P @.P P P P ! ( I ",
"x.] &.R @.[ =.@.Y <.@. .] ..[ T ^ I M ) M P ! / M ( M P P ~ P ! P ) P M d.M i.v P v ^ P P P M P M P M P ! ! ( ! l M ( 3.P P P P 6.Y M ! v M ) v Y v Y Y ( Y ^ I ",
"&.W &.u.P $.! ) @. . .[ &.! [ [ M y I M I T P Y S ^ M N P u.v v ! ( ! ' M ( ( ! Y ' ^ f P ! P Y M l l M M v M L Y J ! M Y v J ( P Y n P Y P ( P Y P Y ) T M T  .",
"&.W ^ 9. ./ U.&.' 6.9.P -...@.I b <.u.n [ M M I n M P M ! v v ! [ P v M ! P ! *.! P M ( ! P M M P N ( Y P ) l Y ( d.Y Y I M ! Y Y l v Y Y Y ! &.P L S M P I T @.",
"[ ' 2.9. .2.9.s.6.-.r.6.6._ @.@.6...'  . .P I T P ^ ! Y P ! Y ! P ! ! ! P l P ( P Y P P ` ! Y P Y M ^ l W P P Y M P M P [ Y Y P 0.) ! P ! P P P Y ! P ! +.n.6.*.",
"T.9.9.u.t.9.,.9. .9.b.u.&.6.p.&.>.W @. . . .[ [ I ( k ^ ! M S M M S ^ ! ! S k ` L ^ Y M v ! ! L P k P M l P Y Y P I P ' I  .n ) P ! ! P b S ( P ) I P ! ..@.Y 6.",
"s.7.9.@.6.@...N 6...6.6.9.' ..6.@. .@. .T  .@.@.T T ! ` P ( M c P v ! ! v ! P 0.! Y Y P M ! ` P I S ) ! P P P I M I P  .[ T @.! &.! ^ I ` ! A @.v ! P ` v.I ' i."
};
