/* XPM */
static char *_4278177a8444623888c63994f899f46Oy1fAFMpi0k8cDsz[] = {
/* columns rows colors chars-per-pixel */
"80 80 237 2 ",
"   c None",
".  c #010100",
"X  c #0B0B02",
"o  c #0C0B0A",
"O  c #140902",
"+  c #171602",
"@  c #191917",
"#  c #300C06",
"$  c #272400",
"%  c #383502",
"&  c #23231C",
"*  c #372300",
"=  c #3A3A38",
"-  c #2E2D27",
";  c #4C0701",
":  c #530A04",
">  c #591408",
",  c #53150A",
"<  c #6C0B01",
"1  c #720C01",
"2  c #641D0E",
"3  c #65190C",
"4  c #6D1C10",
"5  c #463B04",
"6  c #65220E",
"7  c #6B2A0A",
"8  c #753802",
"9  c #7E2A17",
"0  c #7F2C18",
"q  c #762815",
"w  c #6F2E10",
"e  c #6C3C2F",
"r  c #484502",
"t  c #5A5500",
"y  c #724A00",
"u  c #726C00",
"i  c #474738",
"p  c #555327",
"a  c #75733A",
"s  c #706D30",
"d  c #605E28",
"f  c #5A5A4B",
"g  c #545453",
"h  c #5C5C5A",
"j  c #484844",
"k  c #605F48",
"l  c #676647",
"z  c #72714F",
"x  c #7A7975",
"c  c #7A7A7A",
"v  c #75756B",
"b  c #802D1A",
"n  c #882C17",
"m  c #82311E",
"M  c #8B311B",
"N  c #9A361A",
"B  c #843522",
"V  c #863925",
"C  c #883C2A",
"Z  c #A23A22",
"A  c #885100",
"S  c #B75A1E",
"D  c #A54B1E",
"F  c #946900",
"G  c #906C00",
"H  c #B46B00",
"J  c #A67B00",
"K  c #BD7C00",
"L  c #B87500",
"P  c #B16210",
"I  c #8D4432",
"U  c #944B37",
"Y  c #AE4A27",
"T  c #AC452A",
"R  c #AE4929",
"E  c #B14E26",
"W  c #BA4A2E",
"Q  c #B35224",
"!  c #B85B26",
"~  c #C25D24",
"^  c #995747",
"/  c #9F5D50",
"(  c #AB7264",
")  c #937363",
"_  c #0AE200",
"`  c #948F1A",
"'  c #8F880C",
"]  c #B68600",
"[  c #A69B01",
"{  c #B89500",
"}  c #AD8500",
"|  c #B4A800",
" . c #ADA719",
".. c #89842A",
"X. c #8D8831",
"o. c #B19C34",
"O. c #C28400",
"+. c #C68C00",
"@. c #C98E00",
"#. c #CA9400",
"$. c #CD9900",
"%. c #C39400",
"&. c #D19C00",
"*. c #C29618",
"=. c #D4A300",
"-. c #D6A900",
";. c #DBAB00",
":. c #DDB400",
">. c #DFB900",
",. c #CCB409",
"<. c #E2BC00",
"1. c #EAB700",
"2. c #FEBD00",
"3. c #F6BA00",
"4. c #DDB535",
"5. c #DAAE28",
"6. c #E0B638",
"7. c #88DD00",
"8. c #D6CB00",
"9. c #E5C500",
"0. c #EACC00",
"q. c #E9C600",
"w. c #FFCD00",
"e. c #FBC400",
"r. c #EDD300",
"t. c #E6DA00",
"y. c #E4D800",
"u. c #FFD200",
"i. c #FFDC00",
"p. c #F1DA03",
"a. c #EBD019",
"s. c #FFE400",
"d. c #FFEC00",
"f. c #FFF200",
"g. c #ECE20E",
"h. c #F2D629",
"j. c #E5C837",
"k. c #F0D22C",
"l. c #FEE326",
"z. c #FFF438",
"x. c #FAE536",
"c. c #8C8B5F",
"v. c #918E5D",
"b. c #979457",
"n. c #998F4D",
"m. c #A19D59",
"M. c #A9A557",
"N. c #B5AD56",
"B. c #B4AD4C",
"V. c #8B8965",
"C. c #858468",
"Z. c #918F65",
"A. c #989667",
"S. c #8C8B76",
"D. c #AE926F",
"F. c #A5A269",
"G. c #B5B067",
"H. c #DEBA48",
"J. c #C1AC45",
"K. c #E4BE56",
"L. c #98FE6E",
"P. c #F6D947",
"I. c #ECD054",
"U. c #FAE651",
"Y. c #FFF356",
"T. c #F7EC49",
"R. c #CEC370",
"E. c #F6D76A",
"W. c #EBD56E",
"Q. c #F9E766",
"!. c #FFF56E",
"~. c #FFF463",
"^. c #FAE876",
"/. c #FFF573",
"(. c #FFF67B",
"). c #D9C84D",
"_. c #FC46FF",
"`. c #FD69FF",
"'. c #0D96F4",
"]. c #4AA1FF",
"[. c #71B5FF",
"{. c #4398F9",
"}. c #94948E",
"|. c #9A998E",
" X c #909090",
".X c #9B9B93",
"XX c #9B9B9A",
"oX c #868683",
"OX c #A69A8F",
"+X c #A4A39B",
"@X c #A3A299",
"#X c #A1A18C",
"$X c #A1A1A1",
"%X c #A9A8A1",
"&X c #B7B7B2",
"*X c #CCBCBA",
"=X c #D1BDBA",
"-X c #D9B6AF",
";X c #DAABA3",
":X c #D9D58D",
">X c #DED597",
",X c #FFF583",
"<X c #FFF68C",
"1X c #FFF693",
"2X c #FFF89C",
"3X c #F6E78F",
"4X c #C9C3BB",
"5X c #D5C3BD",
"6X c #D0CEA9",
"7X c #CAFDB1",
"8X c #FDE9A6",
"9X c #FFEEB6",
"0X c #FEF6BA",
"qX c #F6DF9D",
"wX c #84BAF6",
"eX c #FF8CFA",
"rX c #B5D9CA",
"tX c #CBC7C4",
"yX c #D3CCCA",
"uX c #DECDCA",
"iX c #D9C7C4",
"pX c #D6D4C9",
"aX c #DDDCD6",
"sX c #EBDEDC",
"dX c #E6D8D5",
"fX c #E1D1CD",
"gX c #FFF7C9",
"hX c #E8E3DA",
"jX c #FFFADC",
"kX c #E9E4C8",
"lX c #ECE8E7",
"zX c #F4E9E6",
"xX c #FEF4F2",
"cX c #FFFFFE",
"vX c #F9F7F3",
"bX c #FFF3EE",
"nX c #E0E0F1",
/* pixels */
"                                                                                                                                                                ",
"                                                                                                                                                                ",
"                                                                                                                                                                ",
"                                                                                                                                                                ",
"                                                                                                                                                                ",
"                                                                                                                                                                ",
"                                                                                                                                                                ",
"                                                                                                                                                                ",
"                                                                                                                                                                ",
"                                                                                                                                                                ",
"                                                                                                                                                                ",
"                                                                                                                                                                ",
"                                                                                                                                                                ",
"                                                                                                                                                                ",
"                                                                                                                                                                ",
"                                                                                                                                                                ",
"                                                                                                                                                                ",
"                                                                                                                                                                ",
"                                              c $XXX.                                                                                                           ",
"                                          $XXXXX. T T T T T Z < 1 T R W # . .                                                                                   ",
"                                        $XXXXX. T T T T T T T T T T T T T T T T R T q < b T W 0 . .                                                             ",
"                                      = XXXXXXT T N < < N R R R R R R R T T R R R R T T R R R R R R R R R Z < 1 T T W @ - . .                                   ",
"                                    . XXXXXXT T Y R T Y Y Y E E R Y R E E E N 1 1 N T E R R R E R R R Y Y R R R T R R XXXX X6 .                                 ",
"                                  . x x x oXj . X 0 ! Y S Q Q Q Q Q Q ! Q Q E Q E Q E E E Q Q Q E E E T 1 < N E E R o .XXX# # 6                                 ",
"                                  x x x x x x x C.x C.C.C.V.V.V.Z.V.V.S.p $ $ D ~ S ! S S ! ! ! ! ! ! ! Q S Q S E E .X.X.X# 7 6 .                               ",
"                                  oXc x x x x C.C.C.c.c.c.v.v.b.A.A.% d % % d A.v.c.c.v.Z.Z.Z.Z.A.A.i % 5 S S S S Q #X.X#X7 7 > 6                               ",
"                                  c g h , X O k S.c.A.s 5 r X.M.M.M.m.:X:X:X:X:X:XqXb.b.m.m.M.F.F.F.F.F.A.b.n.v.c.c.C.) x 7 ; 6 7                               ",
"                                    @ g = 7 8 8 y % H H L K O.+.+.+.u W.u u o.3Xu ` t t ..N.M.N.G.G.G.G.N.M.m.m.b.b.v.c.V.l 7 7 7                               ",
"                                    X g f 7 8 A A H L K +.@.#.$.=.&.&.' u [  .u +.+.#.@.@.#.#.{ X.X.B.R.N.B.B...t r s A.c.l 8 , 7                               ",
"                                      oXf l 8 y A H K @.$.=.-.;.>.>.:.-.,.:.-.:.=.&.=.=.=.-.-.5.4.H.H.).5.=.$.#.O.K L H y p $ 8 w                               ",
"                                        + l a A F K @.$.=.:.<.9.8.9.9.9.9.>.9.>.1.:.>.>.<.<.9.a.j.I.I.I.j.:.;.&.$.+.O.L H v.s 8 7 O                             ",
"                                        + l a r L O.$.-.:.<.<.0.a.r.r.0.0.9.0.9.9.9.9.9.9.q.t.a.j.I.E.W.j.9.<.:.-.$.#.] L L r $ 8 +                             ",
"                                          A.a ^ ` [ | | 8.8.8.8.a.h.p.p.r.p.r.r.0.0.0.0.r.r.r.h.P.Q.W.^.P.y.9.<.:.;.$.%.K L n.a y +                             ",
"                                            r X.` [ | f.z.f.u.,X(.1X/.(.u.t.].t.y.t.p.y.8.y.p.x.U.^.^.3XU.p.r.9.<.:.-.#.+.L H % $ +                             ",
"                                          i.h._ Y.f.s.s.s.e.z.u.0X~.z.2XrXcX].t.t.y.y.e.e.p.g.T.p.s.d.s.1Xf.z.f.d.| [ %.@.K H b.z +                             ",
"                                      ~./.2XvX7XL.cXuXzXxXvXzXfXzXcXhX/.`.xX[.'./.=.G J ] J e.^.f.1XcX!.f.,X2X1X/./.e.s.f.` ..a $ *                             ",
"                                        f.cXcXvXcX*Xo.[ | { { { } 5XcXQ.nXcXcX{.F J ] ] J 2.E.e.nXnXcXcXcXf.i.u.,Xu.(.!.f.!./.w.$ +                             ",
"                                      Y.T._ 7XkXiXr.f././.s.s.s.d.e.vX!._.`.vXF } ] J ] %.gXI.J G $.wX[.].,X!.1Xs.w.i.f.!.w.d.d.6X                              ",
"                                    pXs.u.7.=X5Xu.!.s.s.s.cXdXcX1XvX=XeX_._.J } ] 2.P.3XgX9X4.f.2X!.d.gX1X~.d.!.2X/.u.!.(././.f.kX                              ",
"                                Y.1X!.d.<Xw.cXsXN.E.w.u.cXdX=XR.B.*XcXuX-X(.J ] 1.9.2.bX9X4.d./.g.0X~.;.cX/.i.d.s.s.s.f./.~.l.gXl                               ",
"                                i.Y.^.d.s.s.=XiXcX3.cXcXlXcXq.cXcXd.f.i.<X/.P.2.8XcXcX8X4.sXE.gXJ.e.J e.i.0Xs.s.w.u.!./.!.f.s.kXl                               ",
"                              . /.s.,Xd.z.s./.cXuXfXvXiXuX*X,.=XiXs.s./.!.f.2.E.8XqXK.5.4.8XvXgXgX9X8X2.gX(.u.w.u.u.~.jX1X/.kXf X                               ",
"                              tXu.,XF f.f.u.U.jXQ.zX*XhXu.0Xx.i.cXdXu.w.0X!.f.u.a.W.o.n.[ 3.4.I.W.E.j.,Xi.d.s.w.w.^.~.i.d.G kXX                                 ",
"                               X X X XXX@ . & aX*X=Xs.d.jX<X!.cXuX5Xu.d.s.s.s.s.Y.s.i./.1XQ.I.).1.x.s.f.1Xu./.u.w./.!.!.d.4Xf j                                 ",
"                               X X X XoX X}.}.+XiX}.}.}.|.u.cXiXq./.hXpX>Xu.u./.h.u.u.u.u.i./.Y.pX*Xw.cXd.s.d.(.1X!./.f./.hX. g                                 ",
"                               X X= n 9 b b b e dXX XX}. XOXlX.X%X+X%X%X@X@X.X|.|.jXu.i././.pXlXaXpXv w.f.u.u.u.w.l.Y./.tXg 6 g                                 ",
"                              .  X. b 9 9 b b b sXiXb b ( zXV I +X+X+X& & c XX.X|.}.|.}..X#X+XyX*X&X&X&XsXw.u.i./.tXsXpXaX. X .                                 ",
"                                 X Xb b : ; 3 9 9 cX=XzXxXm C C @X@X@X& .X.X|.|.|.|.X B I I - cXyX&X&XcXiX*XXX.X X XcXyXh 6 .                                   ",
"                                 X X. 9 9 9 9 9 9 9 V =X9 9 9 > .X.XXXoX}.o @ }.}.g m B V C I U ^ ^ / ( %XsXC m M # sXuXg 2 h                                   ",
"                                 X Xv 9 9 9 9 b 9 9 9 9 9 9 9 b h %X.X}.j v }.}.}.z : > B V C nX*XU ^ cX*XvXM b b b cX=X@ 2 g                                   ",
"                                g  Xo 9 9 9 > ; 3 9 9 9 n 9 b b b b m m m m b b O 9 b b m B B lXyXI I ;X2 tX4 b b 9 sXXX# , h                                   ",
"                                .  X X9 9 9 b 9 b 9 9 9 q n q b b > : 3 b b b 9 9 9 b b b b B V lXV e vXlXyX0 9 9 n cX=X6 c .                                   ",
"                                   X X. 9 9 9 9 b 9 9 9 9 9 9 9 b 9 9 b b b 9 b 9 9 9 b > : 3 m *X0 0 / zX0 9 9 9 . iXg 2 @                                     ",
"                                   X X& 9 9 9 9 9 9 9 9 9 9 9 9 b b 9 9 9 9 9 9 9 9 9 9 9 9 9 0 yX0 -XcXyXyX9 > ; cXfXg # g                                     ",
"                                  $X XXX9 9 9 9 9 9 ; : q 9 9 9 9 9 9 9 9 9 9 9 9 9 9 9 9 9 9 9 lXyX0 dXlX9 9 9 9  XiX@ .                                       ",
"                                  .  X Xq 9 9 9 9 9 b 9 b 9 9 9 9 9 9 9 > ; 3 9 9 9 9 9 9 9 9 9 0 vXtXtX=X0 9 9 9 cXsXO g                                       ",
"                                     X Xo 9 9 9 9 9 9 9 9 9 9 9 9 9 9 9 9 9 9 9 9 9 9 9 9 9 4 ; : b b sXOX9 9 9 n  XdX.                                         ",
"                                     X X$X= . i f . . 6 9 9 9 9 9 9 9 b 9 9 9 9 9 9 9 9 9 9 9 9 9 b b 9 xX=X9 9 . cXdXg                                         ",
"                                     X X X X X X X X X X X X$X@ . i i . . 9 9 9 0 9 9 b 9 9 9 9 9 9 b 9 D.C cX9 dX XcXuX                                        ",
"                                          . o $X X X X X X X X X X X X X X X X XXXX . f & . X 9 9 9 b b n ^ sX/ xXiXdX                                          ",
"                                                              . X XX X X X X X X X X X X X X X X X X X. . l @ .  X=                                             ",
"                                                                                  . . $X X X X X X X X X X X X X Xo                                             ",
"                                                                                                      . . XX X X X                                              ",
"                                                                                                                                                                ",
"                                                                                                                                                                ",
"                                                                                                                                                                ",
"                                                                                                                                                                ",
"                                                                                                                                                                ",
"                                                                                                                                                                ",
"                                                                                                                                                                ",
"                                                                                                                                                                ",
"                                                                                                                                                                ",
"                                                                                                                                                                ",
"                                                                                                                                                                ",
"                                                                                                                                                                ",
"                                                                                                                                                                ",
"                                                                                                                                                                ",
"                                                                                                                                                                ",
"                                                                                                                                                                ",
"                                                                                                                                                                "
};
