/* XPM */
static char *_59e38e11a544566c09029f518948bafxgnqfyEaJEJT9QNj[] = {
/* columns rows colors chars-per-pixel */
"80 80 66 1 ",
"  c #1DABD2",
". c #23A6CF",
"X c #21ADCF",
"o c #21ABD5",
"O c #29ADD2",
"+ c #22ADDA",
"@ c #29ADDC",
"# c #23B0D5",
"$ c #23B2DD",
"% c #28B5DE",
"& c #3CB2D4",
"* c #34B2DD",
"= c #3FB8D9",
"- c #2AAFE2",
"; c #25B6E5",
": c #29B5E5",
"> c #24B8E7",
", c #2ABAE5",
"< c #25B6E9",
"1 c #29B6E9",
"2 c #26B9E9",
"3 c #2ABBEA",
"4 c #33BBE7",
"5 c #3DBDE4",
"6 c #36BBEF",
"7 c #3BBDEA",
"8 c #40B7DE",
"9 c #49BEE0",
"0 c #53BCE3",
"q c #2EC2ED",
"w c #36C0E5",
"e c #32C6ED",
"r c #35CAEF",
"t c #38CDEF",
"y c #33C7F0",
"u c #35CCF0",
"i c #59C1DF",
"p c #4DC1EA",
"a c #59C2E6",
"s c #52C4EC",
"d c #5AC6EE",
"f c #5FC9EC",
"g c #64C4E2",
"h c #6AC5E4",
"j c #61C9EB",
"k c #6CCFED",
"l c #71CCEB",
"z c #6FD1EF",
"x c #84D6F2",
"c c #92DBF3",
"v c #99DCF5",
"b c #ADE3F6",
"n c #BDE6F6",
"m c #BAE8F6",
"M c #CCECF5",
"N c #CFEEF9",
"B c #D1EEF6",
"V c #CFF0F9",
"C c #D1F0F9",
"Z c #DBF3FC",
"A c #E4F5FC",
"S c #EEF7FD",
"D c #E6F8FC",
"F c #ECF9FE",
"G c #F3FBFD",
"H c #FEFFFF",
/* pixels */
"o>;>;;<>>;.ooo ooooooooooooooo;;;;>>>;ooo>;><;>>>$oooooooooooooooooooo:<;;>>>; o",
";;;>>;;>$oooooooooooooooooooo;;;o;>>>;;;;;;>>;><$ooooooooooooooooooo ;;$o;>;;;;;",
";;;>;ooooooooooooo+oooo;;oooo>; oo$;;;>;;;>>;oooooooooooooooooo;;oooo<;ooo;;;;;;",
"+;2>;oooooooooooo+X+oo<;;;o$:>;;oo;>>;%o+;>>>oooooooooooo+o+oo;;;;o$:;;;o ;;;;; ",
"$;;>>+ooooooooo+orrooo;;;;<;;>;;;;>;;>;;+>;><-ooooooooooorrooo;;;;;<;>;>>>>;;>;;",
";;;;>oooooooo+rr@o ooo+;<;><>;;;;2;;;>;;;;;;;oo+ooooo+er+o+oooo:711;;>;;>>;;;>>>",
";;;>oooooo++o rrroooooo:>;;;>;;;>>;;;>>;;;<<   +oo++o+uryoooo#+ln<6461>;>>;;;>2;",
";;>;oooo;;;;;Or4+ooooo+;>;;>>;;>>>;>;;>;;;<;oo  ;;;;+ore#oooooo14;;j<1::%>;;;;>;",
">>>2    :<l6p-  Hi ;+<<;>>>>><;<>>>>>>>>>>;<    ;<>;<$ooooo:+:;;1H5<31HG>>>>>>;2",
">;>;<<$;7::%<>;o+<23Hs;>;;;>>;<:>>>>;;>;;;<>;;;>>>;>:Dn&o:<>>;>;$;;;>;<;;>>;;;2;",
";;;><<;;:Z,2;:Zm2>;<21<>;;;>>ooo;>;;;>>>;;>>;>;>>>;;;%12CHH:;;;>;;;>><;;>>>;;;2;",
";;;2<<;;;:;;;;;;;;>;;;;;;;>;;oo+>>>>;;>;;;>>;;;>>;;;;;>>2;:;;;>>;;;;>>;<$>>>>>>;",
">>;>;>;>>>;;;;;;;;2;;;;>;<;;$ooo <;;;;>>;;<>>;;>>;>;>>#oo;;>>>>><>>;<<1  o<;$<>;",
">>>>>>>>>>>>;;;2>>>>;;ooo+oooooo  ;<>>>>>>>>>>>;>>>>>;o+o:>>><;><<>><1++<;o o>>>",
">>>>>;;>>>;;;>;;;;>;>ooooooooooo+o->;;>>;;<>><;;<;;#<;>$;;>+;;;oo;<;2;ooooooo$;;",
" ;;>>;;>>>;;;>;2>2>;;ooooooooooo++$<;;>>;><>;>;;;$ooooo+$+oooo+o ;;;; oooooooooo",
"  o<<<>>;;;>;>:;$:>;;ooooooooooooo>2;;>;;<;ooo<<;o.ooooooooooooo ;>;>;oooooooooo",
"o+oo- ++ooo;;>ooo>>>$oooooooooooo;;;>;>;;<oooooo ;<<;ooooooooo@$;<>;;>;ooooooooo",
"oooooooooo+:>;$+;;><@ooooooooooooo2;2>2>;;oooooo:;<<>ooooooooo;;>;>>;,>;oooooooo",
"oooooooooooo;;;;;;><:ooooooooooooo >;;>;;>;ooooo;;>>$ooooooooo;;>;;>rr,;oooooooo",
"ooooooooeeXooo;1;2>>;ooooooooooo oo<;>>;;;;oooooo;>$oooooooooo;;;;>;rr<;oooooooo",
"oooooooooeoooo$>;<>;;:ooooooooooo+o>;;>;2>;+ooooo+ooooooooooooo$;;;;;;><#ooooooo",
"oooooooooooooo;;;;>;;<;;ooooooo#;<><>;>>;;oooooooooooooooooooooo;;;;>>;+oooooooo",
"oooooooooooooo;>>2>>>>>>ooooooo><>>>>>>;;ooooooooooooooooooooooo$<2>>>>%o oooooo",
"oooooooooooooo>;;;>>;;;>+ooo++;>;<;;;>2$ooooooooooooooooooooooo +>;>>;;>;;oooo o",
"ooooooooooooo;>>;;2;;;2>+ooo  >;;>;;;;2 oooooooooooooooooooooooo$;>;;;>;;;oooooo",
"oooooo;oooo. >2;;;>;;;;;ooo;>>;;;>;;;;2 oooooo ooooooooooooooooooo:;>;;;;;;$oooo",
" oo#;>;>;o++>>;;;;>;>>>;;;;;2;>;<>>;;;;;ooooooooooooooooooooo.oooooo;:>>;;;;;>>;",
":;:>;>>>;;>>>>2;>>>>;;>;;;;><2>>>>><;2>;oooooooooooooooo+;;>>>;;ooooo;;;<>>>2>><",
">>;<<;;>;;>;;>;;;>>>;;oo$;>$o;;;>>;;;;>>oooooooooooooooo;;;;;;;;ooooo+;$;>2;;;>;",
">>;;>>;;;e,>>>;;;;>>>>  o:;$o;>;;>;;;>>;$oooooooooooooo+:;;>;;;>;oooo9HGo;;;;<>;",
";>$$:2;rrre>;>;;;;>;;;;$+1;<;<;;>>;;;;;;;oooooooooooooo;;:<;>;>>;oHMk<1 oX<;;>>>",
"$ooooo;rrru;>>;;>>>;;;>>>>;>2;;;>>;<;>><:ooooooooooooo+;;o;;;;;>> -7<;;:GH<;;;>;",
"oooooo;rrr>;>>>>>>>>2>>>>>>>>>>>>>>>>>,;+oo#o+,;%;oo+ ;>>o$;;;>>>>>;;<;%$<:;;; o",
"oooooo;>r>;;>>;;;>>;;;>>;>;;>;;;;<;<;;#+oooOoo;;;;oo <;>>;>>;;>>>;>>>;>;<<;;2;+o",
"ooooo:;;;;;>>>;;;>>;;;;;;;;;2;;;>;DZ2;#oo0g+aad:;;;;;>>;;>>;;;<>;;;;>;>;;<;;<<oo",
"oooo;;;q,;;;;2;;;>>;<;>><;;>>;;;;;;2<GHBoo@+o1:;%%;;;;;;;>>;;;>>;;;;>>o#;>;;;> o",
"ooo;>;3re>;>;>;>;>>>;;oo $ ;>>;;>>;;;-ooo+=n;;$:Vf;;<>;>;>>;;;;2;;;>>>$o;>;;;;oo",
"oo;;>>;;;>>>2>>>>>>;1ooooo +#;;o%>;>>>>;:::;:;;;:;:>>2>>>>>>>>>2>>2>>>;;>>>>>+oo",
"o#;;;;;>>;;>;>;;;>>>oooooooooooX+;>;>>>>;;;;;;;>;>;;;>;;;>>>;>;<>;;;>;;;;2;>; oo",
"o:;2;;>>;$o:>>;;;>>< +ooooooooooo>>;;;>;;;;>;;;;;;;;;2;;;>>>>1+>;;;;;;;;;>;;;;o ",
";<;>>;><$oo>>>;;;;>>  o ooooooooo%;;;;>;;;;;>>2q;;;;;>;>>$>>:ooo;<;;>;;;>;;;;;;;",
";;;><o   o;;%>>;>;>;oo3uqoooooooo$>;;2>;>><>;erru;>>;>;>< o+oooooo+>;>;><>;>;;;;",
"+;>2>oooXSGS7;>>>>>>oo-ur+ooooooo ;>>>>>>>>>>>rry>;>>>>>; +oooooo+:;;;;;>>>2>>; ",
"#;>>>$og@ -;;>>;;;>>oo+rrt+ooooooo><;>>;>;;>>;rrrr;;;>>>;;ooooooooo;>>;rr;>;;>>;",
";;;;<o+Xh+ <;>;>;;>;ooOrrrooooo oo-<>;>;;;;;;<qrue;;>>;;;;oooooooooo;>,;e>>;;>><",
";;;>oooo+o+;>>>:oooooOo+#ooooooooooo;>>;;;>yr>;>>;;;;>;>>;oooooooooo;;;err>;;;>;",
">;>;oooo;><;;;>ooooo3,oe,ooooooooooo +>>;;;qrr;<>;;;;>;;oooooooooooo:;;qrr>;;>>;",
">><>oo#o><>>;;ooooo++uo#+oooooooooooo >;>>;%;;>>>>>>>>> oooooooooo+;;;;;;q;>>2>>",
";;>;;;$;>>;;;>>oooo.O3ooooooooooooooo >>;;>;>>;>>;;;;>;;oooooooooo;<<;<;;;>;;;>;",
";;<>>>>>>;;;>>>$oooo ooooooooooooooooo$>;;>;rt>;;;;;;;;>+ooooooooo>>;;;;>>>;;;>;",
";;>2;;;>>;;;;>;$oooooooooooooooooooooo+;;;;;3r<;2;;<:%:;+ooooo+;oo;;>2;<$;>>>>2;",
";;<>;>;<>;>;<2<$ooooooooooooooooooooooo;;;;2;;;>>;;;<p1mx9-o;;>>;;;>><>ooo;;@;><",
">>>>>>>>>>2>>>>$ooooooooooooooooooooo+->>>>>2>>>>2>>;;;1-l +;>>>><>>>>+ >;oo ;;;",
";;>>;<;>2;;;;>; ooooooooooooooooooo.  ;>;;;>>;;<>;;>;><;<@oo>;;>;;;;>;o+ooooo;;;",
" >>>>;;;>;;;;<; oooooo oooooooooo +;;;>;;;;>;>><;2;;o<>;2 o#;;>>;;;;;+oooooooooo",
"ooo>><>>>;<<<>;;oooooooooooo    o+;;>;;;;;;<>;1+ @;oo>;;<<;;>;;>;;;;>>+ooooooooo",
"oooo$##o  o;>2;;;;o+oooooooo -<$+;<;o;;>;;<;;; .ooooo;>>;<>;;>;>;>;>;>> o .ooooo",
"ooooooooooo<>>>;>2;+oooooooo><>><>;oooo><;;;;ooooooooo<<2>2>>>>>>>2;>,>;oooooooo",
"ooooooooooo+;;>>;>>$ooooooo 2>;;>>>:.o;;;;;;oooooooooo ;;;>;>;>>;;>>er,>oooooooo",
"ooooooooeeoooo$:;>>>ooooo.o;>>;;;>>>;;>;<ooooooooooo  1<;>>;;;;>;;>;rr<;oooooooo",
"oooooooooroooo+>;;>;oooo;;;;>;;;;>;;;;>;; oooooooooo ;<<;;>;;;;>;;;;>;;1oooooooo",
"oooooooooooooooo;>>>;$o-;;;;>>;;2>;;;<>>- oooooooooo <>;;;>>>>>>;>;;>;;ooooooooo",
"ooooooooooooo#oo$;;;;%1;;;;;>>>>>>>>2>>;+ooooooooooo >;>>>>>>>>>>>22>>;;oooooooo",
"oooooooooooXoo$AHv:;;:1AFbd:>>;;;>>;;;>>;++ oooooooo;;;;;;<;;;>>;;;;>;>;;+ ++ oo",
"oooooooooooo*Ms1;;Zbd%;%:j:;>;;;>>;;;;<;;;<2;oooooo;;;;;;;2;;;;<;;;;>;>2;;  o+oo",
"oooooo;oooooO$><;;;c2:;;:>;;>;;;>>;;;;>>22>><ooooo:;;;;;;;;:<;;;;;;>>;;;>>;$+ooo",
"oooo:;;;;oo#%;>>;;;:;;>>>>>>>;;;>>;>;>>;<1  ;;$#++>>;;;;;;%;;Nx<;;><>>;;>>>><;;;",
",;;>;>>>;>;>>>><,%o:;:;>>>>>>2>>>>>>>2>2>>  <;;;:>;%1<<;xD.;;;1:;2>>>>>>>>>>>>><",
";;;<>;;>;>>;;>>>< oooo;<>><;>;;;>>>>;;>;><;;;;>>;;;z:czp;Oo8A$>>>2<<>;>;;>;>;>>;",
";>>2>><;>e>;;2;>ooooooo;;> +;;;;;>;;;;>;>>;<1>;;;e32;%:;$+G8ooo>;>  ;;;;>>;;;;2;",
";;+$,<;rrrr>;>>;ooo+#roo;;;;;;;;;;;;;>><;>$$:2;rrrr;>;;;ooOo#woo;;;;;;;;;;;;;2;2",
"%ooooo;rrrr:;2>$oooo%$ooo$;;;;;;;2;>>;<;$ooooo;rrtr>>>>#ooo+%%oo $;<>>;;>>;;>;;;",
" ooooo;rrt,;>>;>ooooooooo o;;;>2>2>>>;o+oooooo;r:>,;>>;>+ ooooooooo;;;>>>>2><; o",
"oooooo;;r3;;>>>;$o+##ooooooo$;;;;>;;>> +oooooo;;>>>>;>;;$o+$+ooooo. ;;;;;>;;<;oo",
"ooooo:>;%>;;;>>;+oouXooooooo>;;;;2;;;;  ooooo:;;;;;;;;;;ooorXooooooo>;;;>>;;<<+o",
"oooo<<;3;;,>>>$ooo+ooooooooo>>2;<>;;;< ooo.o;<;q;;;>>;;oooo+oooooooo;;>;;>;;;;+o",
"ooo;<;qre>;;>+oooooooooooooo >>><>><;<+oooo<;;3yr;;;>#oooooooooooooo+;>>>>>>;;oo",
"oo;><<;>;;$o;ooooooooooooooooo;>>>>>< oooo<;>>;,;;$o;ooooooooooooooooo;>>>>>>  o",
"oo;;;;;;>;oo ooooooooooooooooo+;>>;>;+ooo#;;;;;>;;ooooooooooooooooooooo><>>>; +o"
};
