/* XPM */
static char *_9caa234ed44478681e88431bc3bb216TieifJWmN14WlTH5[] = {
/* columns rows colors chars-per-pixel */
"96 80 161 2 ",
"   c None",
".  c #4E281F",
"X  c #473215",
"o  c #483316",
"O  c #4A3518",
"+  c #4C381A",
"@  c #573F17",
"#  c #583F17",
"$  c #523C1C",
"%  c #5C3E1B",
"&  c #4F2821",
"*  c #532B21",
"=  c #653D24",
"-  c #613128",
";  c #643A28",
":  c #6E3B2E",
">  c #713B2F",
",  c #6F3A31",
"<  c #723C31",
"1  c #574017",
"2  c #584017",
"3  c #57411F",
"4  c #5A411B",
"5  c #62441C",
"6  c #694C1B",
"7  c #5F4420",
"8  c #644721",
"9  c #664922",
"0  c #694D26",
"q  c #6B4F28",
"w  c #74422E",
"e  c #78462D",
"r  c #714828",
"t  c #6B5028",
"y  c #6E5224",
"u  c #7B5A24",
"i  c #715428",
"p  c #7A5B2B",
"a  c #774032",
"s  c #7B4434",
"d  c #7E4C33",
"f  c #60533B",
"g  c #6B5A3F",
"h  c #7D602D",
"j  c #474747",
"k  c #4B4B4B",
"l  c #4E4543",
"z  c #595247",
"x  c #555555",
"c  c #5A5A5A",
"v  c #6C5B41",
"b  c #736143",
"n  c #746958",
"m  c #6C6C6C",
"M  c #757575",
"N  c #7B7B7B",
"B  c #875D27",
"V  c #80512A",
"C  c #834B37",
"Z  c #844C38",
"A  c #825731",
"S  c #8C5637",
"D  c #865439",
"F  c #8C533B",
"G  c #8F5939",
"H  c #90563D",
"J  c #945B3F",
"K  c #856223",
"L  c #8F6924",
"P  c #87662D",
"I  c #8C6724",
"U  c #916B26",
"Y  c #946D29",
"T  c #97702A",
"R  c #9A732E",
"E  c #866633",
"W  c #8E6D32",
"Q  c #94643C",
"!  c #9C7531",
"~  c #9F7934",
"^  c #99743B",
"/  c #A47D37",
"(  c #A57F3A",
")  c #8E5A47",
"_  c #975C40",
"`  c #995E41",
"'  c #865E56",
"]  c #806D4D",
"[  c #9C6143",
"{  c #997D49",
"}  c #8A6253",
"|  c #A36746",
" . c #A46847",
".. c #A86E46",
"X. c #A76B48",
"o. c #A96D49",
"O. c #A07542",
"+. c #A27C42",
"@. c #AD7C47",
"#. c #AD704B",
"$. c #AF794B",
"%. c #B17A4D",
"&. c #AE7755",
"*. c #826964",
"=. c #847862",
"-. c #9E7A65",
";. c #857A73",
":. c #807F7E",
">. c #897B79",
",. c #AA833E",
"<. c #A68140",
"1. c #AC8542",
"2. c #AF8944",
"3. c #AD8848",
"4. c #B38B45",
"5. c #B2824A",
"6. c #B58F4A",
"7. c #B89046",
"8. c #B7904A",
"9. c #BA934C",
"0. c #B98051",
"q. c #BF9750",
"w. c #8F826E",
"e. c #9F806E",
"r. c #C0974D",
"t. c #C49B4F",
"y. c #C28D55",
"u. c #C49056",
"i. c #C19A52",
"p. c #C89F56",
"a. c #CC9E5B",
"s. c #CBA157",
"d. c #CEA459",
"f. c #D0A65B",
"g. c #D3A95C",
"h. c #D7AD60",
"j. c #D9AE61",
"k. c #DBB062",
"l. c #858585",
"z. c #8C8B8B",
"x. c gray57",
"c. c #9B9B9B",
"v. c #A88C80",
"b. c #AD9E9A",
"n. c #A7A7A7",
"m. c gray67",
"M. c #B8AEAD",
"N. c #B1B1B1",
"B. c #BDBDBD",
"V. c #C8C1B4",
"C. c #C6C6C6",
"Z. c #CDCDCD",
"A. c #D4D4D4",
"S. c #DCDCDC",
"D. c #E2E2E2",
"F. c #E7E7E7",
"G. c #E4E4E4",
"H. c gray92",
"J. c white",
"K. c #FDFDFD",
"L. c #F3F3F3",
/* pixels */
"                                                                                                                                                                                                ",
"                                                                              #.                                                                                                                ",
"                                                                              #.                                                                                                                ",
"                                                                              o.C.n.                                                                                                            ",
"                                                                              #.C.C.N                                                                                                           ",
"                                                                              #.C.S.S.M                                                                                                         ",
"                                                                        <     #.C.G.G.A.j                                                                                                       ",
"                                                                        F     o.C.F.L.G.M                                                                                                       ",
"                                                                        F     #.  F.J.D.N.                                                                                                      ",
"                                                                      2 Z     X.  F.J.D.C.                                                                                                      ",
"                                                                      @ Z     o.A.D.J.D.C.                                                                                                      ",
"                                                                        o.<   X.C.D.F.D.C.c                                                                                                     ",
"                                                                        D <   o.C.D.D.D.C.x                                                                                                     ",
"                                                                      ;.Z '   o.C.D.G.G.B.x                                                                                                     ",
"                                                                #     v C.  z.o.B.C.A.C.B.x                                                                                                     ",
"                                                                  #     ' _ @ Q n C.C.C.B.x                                                                                                     ",
"                                                                        F F % o.C.c C.C.B.                                                                                                      ",
"                                                                  #   < F _ % o.C.N.B.C.n.                                                                                                      ",
"                                                                      < F F % X.C.C.c m.x.                                                                                                      ",
"                                                                1     , F F % o.C.D.A.z.z.                                                                                                      ",
"                                                                      < F F % o.A.D.D.M l.                                                                                                      ",
"                                                    #       2         , H F % o.A.D.S.c.j                                                                                                       ",
"                                                            #         < X.Z % X.C.D.H.A.N                                                                                                       ",
"                                                                      < o.s   o.A.D.J.A.N.                                                                                                      ",
"                                                4         #           < o.d   o.D.F.J.D.C.                                                                                                      ",
"                                          #           #               < o.s   X.A.F.J.D.C.                                                                                                      ",
"                                        #       #                     x.C.    D A.J.J.D.C.                                                                                                      ",
"                                                                      *.n.b.% F A.D.J.D.C.                                                                                                      ",
"                                  2 #                                 < o.o.% Z C.D.F.D.C.x                                                                                                     ",
"                                #                                     : X.o.  F C.D.D.D.C.x                                                                                                     ",
"          o.#.o.#.o.o.o.#.o...o.                                      < o.o.  < C.A.D.A.C.x                                 #.#.o.#.#.o.#.#.                                                    ",
"        #.D F F D F D F F F Z F ` #.4       2 #                       < o.[   :   B.D.A.C.x                             #._ F D F Z F Z F D `                                                   ",
"        #.V V u V V V V V d V V e C o.                              2 < o.r       j B.Z.C.k                           o.d e V V B V V V V V e |                                                 ",
"        #.R j.k.k.k.8.U 7.6.t.k.U +.< [                         #     < o.A         x C.B.                        #.F < 3.2.g.4.7.,.6.g.j.j.g.> ..                                              ",
"        #.Y ! ! / R R R / / / / L 6.U s  .                  2         : X.r         l.B.N.                    #.X.C d L 6.Y R / T ,./ ,./ / R / a o.                                            ",
"        #.U ,.,.,.U L L L R L L L ,.L / < H o.          g             < X.#         l.M z.                  #.Z , O./ L 6./ 6.i.r.,./ ,./ ,.4.t.6.< #.                                          ",
"        #.Y d.g.4.T j.k.k.k.j.6.L 6.L ~ 6.e s o.o.o.o.o.-.......o.o.o.< D # &.o.....l.m :.o.o.o.o.o.o.o.o.| < Q L 4./ L Y 4.g.k.k.k.k.k.k.k.s.4.d.k.< #.                                        ",
"        #.R k.k.k./ ~ / / / ( 4.L / L / 6.L ^ , < > : < > > > > > < > z.v.b M.< > > l.m l < > < : < < < > > 1./ L / R L 6./ 4.7.4.4.4.,.,.4.4./ 4.4.4.s  .                                      ",
"        #.Y 7.6.3.L T 8.R U Y Y L 6.L / U U / g.g.f.f.U g.g.g.g.4.4.4.x.B.w.V.g.f.g.l.m z Y g.g.g.g.g.g.g.p.4.U L 6./ L 4 ( 7.9.9.9.9.T R T R Y g.k.9.Y < o.                                    ",
"        #.L ,.4.i.t.,.,.R g.k.j.O $ I ! 6.I / t.t.t.,.( t.t.t.r.t.i.t.>.;.w./ / ,./ l.j / Y / / ! R / / / / / / I 1.5 + + ,.g.j.q.t.t.k.k.k.k.k.k.k.k.g.4.< o.                                  ",
"        #.R i.d.f.f.j.j.( C t.t.O X + u 8.L ( j.k.k.g.6.4./ ,.,./ ( / < 5 A i.i.! W z.f R U / i./ ,./ R ! R 3.~ K $ X O + ,.t.t.t.t.t.i.,.t.i.i.t.t.t.1.1.( s o.                                ",
"        #.T 9.9.4.T T Y Y H S U O X + O 4 L ( 4.k.k.k.k.k.k.k.k.j.R j.H 5 A j.j.j.{ z./ k.k.k.k.j.k.k.k.g.d.<.X + + X + + L U 2.8.3.4.j.4.4.2.2.p.g.g.g.f.4.R d #.                              ",
"        #.Y 4.4.7./ 4.4./ F H / O X + O X + P ~ / 4.4.4.,./ ,.4.,.,.7.F A A 4.4.4.x k ! ( 4./ / / ,.4.4./ ,.7 o O O O O o 4.j.k.k.k.k.k.k.k.q.~ i.j.j.k.k.j.j.0.Z #.                  #.        ",
"        #.R k.g.j.9.7.t.F H F d.X o o o o X 7 j.h.k.9.9.9.9.q.Y ! Y Y < C A D 9.,.j p j.k.k.k.k.k.r.T Y U d.8 8 o o o o + 4.d.4.4.4.g.g.g.g.g.1.Y T T T T Y T T B F   #.#.#.J H [ #.J F F       ",
"        #.T i.i.i./ i.R g.F [ k.o o o $ 8 8 8 i.t.t.t.t.f.k.k.k.k.k.d.w F o.Z j.p.y k.g.g.f.1.k.k.k.k.k.k.f.y q 0 t + O o ! ,.7.8.8.~ R ! 8.,.! 7.,.,.,.,.,.( p.i.%.F J H F | o.| G * *         ",
"        #.Y / / ( / / Z  .` F H o 7 9 8 9 9 0 k.k.k.q.h.! 2.t.t.r.t.t.e F #.d t.5 i.,.4.t.1.! 1.t.t.t.t.i.7.8 8 8 t 0 4 o 4.k.k.i.i.k.k.q.9.j.k.p.i.j.d.f.g.k.k.%.C Z o.D D : * &               ",
"        #.Y d.g.h.h.g.F #.d o.H 8 8 8 8 t 0 t L L L T T T U L 2.,.4.4.% 5 #.e U Y U U 4.4.L 4.4.4.4.4.4.4.U t t t t t t t U T T T T T T T L ( k.k.j.j.k.j.j.h.y.F < < ; * .                     ",
"        #.T p.t.6.~ / F s s d Z 0 0 0 9 0 0 0 k.k.f.s.k.k.s.s.s.k.k.k.2 H o.C +.s.p.p.k.j.s.p.9.s.k.k.k.s.9.8 8 8 8 8 0 8 ( / U / s.7.4.,.T 6.~ ( ( 6.6./ / $.F Z ` X.-                         ",
"        #.U T Y U U Y < < < < < 8 8 8 8 8 8 8 g.4.i.g.g.g.L d.g.4.4.4 , D #.D 9.g.g.8.4.6.g.4.U U Y Y T Y Y 8 8 8 9 0 8 8 k.k.k.j.g.! ( q.j.8.8.g.k.k.k.j.f.J F Z D F                           ",
"        #.R t.t.r.( 7.i.t.t.t.t.8 8 8 8 8 8 8 ,.1.4.9.L L L L ,.R =.] < C [ = 7.6.R R U f./ ( / / ,.U R R R q q q q 0 q t ! R / R R ! R ! d.k.g.i.i.i.q.a.[ C #._ _ <                           ",
"        #.T i.k.g.g.7.6.7.i.g.f.9 0 8 0 9 9 0 k.k.k.d.k.k.f.k.k.d.k.d.< , < d k.k.k.k.f.g.d.k.k.k.k.g.t.k.4.q 0 q 0 q 0 0 / 1.,.1.,.,.1.( L 1.,.4.,.R @.F < Z ` C <                             ",
"        o.U T T T T T T T T T T t t t t t t u T T T T U T T T Y R Y T Y s = k.g.k.7.g.k.d.d.9.j.k.9.9.k.j.d.8 8 8 8 8 q 8 4.g.g.g.g.f.4.4.d.g.3.4.g.d.F < < < < < <                             ",
"        #.T 7.p.p.p.p.p.p.4./ / 8 8 8 8 8 8 u 4.p.,.,.L 4.9.s.q.6./ / ( / u 4.7.4.9.s./ U / / ( i.s.s.i.7.,.9 0 0 0 0 0 q 6.p.k.k.k.k.k.R p.p.j.j.a.J < H H C C s                               ",
"        #.R g.k.j.p.g.g.g.g.f.g.0 8 8 8 8 8 u j.k.k.j.8.U 9.k.s.q.j.j.j.p T T T T Y Y Y U T Y T T Y Y Y Y T 8 8 8 8 8 9 t U Y U ( 6.4.4.4.6.4.1.Y [ , < < < s < <                               ",
"        #.T t.t.t.( ! / / R ! Y p 8 8 8 8 9 u d.d.g.s.8./ k.k.k.k.k.d.3.k.k.k.k.k.k.g.4.p.j.k.j.k.k.k.k.k.t.q q 0 0 q t L i.i.,.t.t.,.,.i.i.7.1.X., C C Z C C <                                 ",
"        #.R ,./ / 6.9.i.i.i.i.T 8.B 9 9 9 9 u L ,.,.,.,.,.i.s.t.i.T ! K 7.,.t.t.t.t.T t.t.t.6.1.,.t.k.,.U L 6 8 8 8 W T Y 9.6.j.k.f.k.k.k.k.j.o.< o.o.&.|  .J ,                                 ",
"        #.Y 4.4.4.f.g.k.k.k.k.R 6.U 6.9 8 9 u g.g.3.4.4.i.g.g.g.g.g.^ 4.2.~ g.3.g.g.g.g.g.g.g.g.g.g.g.g.g.,.8 0 p U U U L U Y Y T T T 7.9.Y o.< s < < < < s <                                   ",
"        X.#.#.o.#.o.#.#.#.#.#.#.6.L 6.I E 8 u j.k.k.k.k.k.g.s.s.i.^ s.k.k.R s.k.k.k.k.k.k.j.k.k.p.p.p.j.p.d.E / / L ( Y Y u.u.u.y.%.y.u.5.o.s s _ s C F F s <                                   ",
"        C F F H H H F H H H H ..o.U 4.L 4.i u T R U U U U T 4.E 3.L U Y T L U 1.4.j.9.U U U Y L L 4.4.4.g.s.,./ 6.U / Y #.[ F F F ) F F F s X.< F F < s < s                                     ",
"          Z C C C C Z C C C C < _ o.! U R 2.L f.k.k.k.k.k.q.9.3.g.8.k.k.k.k.k.k.k.k.k.g.k.k.k.k.d.j.k.i.d.f.( ! 6.I $.o.D < [ Z F ` ` C [ [ ` ` C s Z ` Z                                       ",
"          s X.` _ F < s C Z C < < s o...2.R U i.i.t.t.t.t.6 t.t.9.i.t.t.t.t.t.t.t.t.T 1.t.t.t.i.i.t.t.t.,.7.4./ %.#._ < < < s s s Z C C < s Z < s C C <                                         ",
"          < F #.o.#.#.o.o.H F F o.o.< ` o.4.U d.T T T T n T k.s.9.g.k.T U T T T U 8.8.9.T T T R R T T 8.6.f.U o. .< ` ..o.o...F _ ..o._ F o.s X.X._ <                                           ",
"            C s s H F s s s s C s s F Z < o.#.#.#.#.#.#.-.#.#.o.#.#.o.#.#.#.#.#.#.#.#.#.#.#.#.#.#.#.#.#.o.#.| s C s C ` F s s F ` F F F [ #.s F F <                                             ",
"             .` Z F ` X.F F J o.F H o.o.F < F H F F G F H F H H H H ) G F F G F F H F H F H F G F H F F F F > s  .F F  .o.F  .o.o.| Z F D o.F ,                                                 ",
"            C C C _ ` Z Z Z C C Z C C ` Z Z , Z ` ` ` Z Z Z < s Z _ [ F ` H < ` Z ` ` [ C _ ` [ [ ` Z C [ ` ` s F Z F [ ` | Z Z ` Z C [ _ Z s                                                   ",
"            < [ o.F  .[ _ F C F H _ o. . .F < J _ F F  .o.#.o.o.#.#._ F F Z C #._ F F H J F Z Z J J < _ _ F F  .#.#.o.#.o.o.| F F F Z o.[ s                                                     ",
"            < < < s < < < < < < F F F < F s s < < < < < C F H s < < F F < < < < < < < < < H < < < > > < F H < < < < s < < < < < < < < < <                                                       ",
"                a s C s s F C < < s _ s H F H F H s H H F s F C s H H F H C s < s s C F H H Z , H H C < s H J J H F H s C s s <                                                                 ",
"                    < H F F F F F F o.[ F F F F F H H F F F o.H Z F F F o.o.#.o.o.#.o.` F H J F F H H o.o.o.H F X.o.F D <                                                                       ",
"                        < s Z < < s s s s F F D s < < < < H J _ _ _ J J _ C s s s < Z s s < < < < F F H C < < < < >                                                                             ",
"                            s s s s C s , , a C s < C C s < < Z s C C C s s < s < < s < < < Z C < < < Z s <                                                                                     ",
"                                          < < , < < < < < , < < F F X.Z F X.| F F , o._ F F F F F F , <                                                                                         ",
"                                                                                                                                                                                                ",
"                                                                                                                                                                                                ",
"                                                                                                                                                                                                ",
"                                                                                                                                                                                                ",
"                                                                                                                                                                                                ",
"                                                                                                                                                                                                ",
"                                                                                                                                                                                                ",
"                                                                                                                                                                                                "
};
