/* XPM */
static char *c49c0f167af44be0f9a9c0cd50622a6cxzwRQe0SF96m192P[] = {
/* columns rows colors chars-per-pixel */
"90 75 240 2 ",
"   c None",
".  c #030202",
"X  c #0C0106",
"o  c #0B0A03",
"O  c #0B0B0B",
"+  c #130B05",
"@  c #1C040D",
"#  c #160808",
"$  c #0C1302",
"%  c #131E03",
"&  c #1D120B",
"*  c #191206",
"=  c #141414",
"-  c #1C1C1C",
";  c #1C1A14",
":  c #1B0F13",
">  c #25080D",
",  c #23150B",
"<  c #2D1A0C",
"1  c #261909",
"2  c #321A0D",
"3  c #230511",
"4  c #2A0713",
"5  c #350719",
"6  c #3A091B",
"7  c #380517",
"8  c #241D1B",
"9  c #391814",
"0  c #1B2B04",
"q  c #172504",
"w  c #1E3105",
"e  c #2A2A05",
"r  c #342109",
"t  c #273A06",
"y  c #373706",
"u  c #29231B",
"i  c #392719",
"p  c #2D3E14",
"a  c #252525",
"s  c #292929",
"d  c #2A2725",
"f  c #312D2C",
"g  c #322C25",
"h  c #39332B",
"j  c #343433",
"k  c #393635",
"l  c #3C3C3B",
"z  c #3B3A37",
"x  c #2F322D",
"c  c #321521",
"v  c #48051B",
"b  c #54021F",
"n  c #5C051F",
"m  c #520B1C",
"M  c #481617",
"N  c #66181B",
"B  c #462A0B",
"V  c #562B07",
"C  c #572C08",
"Z  c #592E0A",
"A  c #5E320C",
"S  c #593B0C",
"D  c #452815",
"F  c #4F3219",
"G  c #573417",
"H  c #513010",
"J  c #62350D",
"K  c #65380F",
"L  c #692418",
"P  c #6B3D12",
"I  c #653B19",
"U  c #7C3916",
"Y  c #71271A",
"T  c #590120",
"R  c #570620",
"E  c #7A0132",
"W  c #6B032B",
"Q  c #453728",
"!  c #5C3921",
"~  c #423732",
"^  c #683D24",
"/  c #264203",
"(  c #294604",
")  c #2B4904",
"_  c #2D4909",
"`  c #374B0A",
"'  c #33530B",
"]  c #385A08",
"[  c #345406",
"{  c #35481A",
"}  c #3B5912",
"|  c #2F4312",
" . c #58440A",
".. c #564812",
"X. c #674908",
"o. c #685703",
"O. c #6D4114",
"+. c #6B4018",
"@. c #724316",
"#. c #754519",
"$. c #7B4B1B",
"%. c #774918",
"&. c #745209",
"*. c #45631B",
"=. c #796E04",
"-. c #5C4028",
";. c #4B4238",
":. c #574736",
">. c #4C522B",
",. c #694727",
"<. c #734827",
"1. c #7B5629",
"2. c #7B4F32",
"3. c #6A573D",
"4. c #7C5937",
"5. c #694F31",
"6. c #516A2B",
"7. c #537029",
"8. c #6D7A3C",
"9. c #6E6E34",
"0. c #7C3647",
"q. c #434242",
"w. c #4B4B4A",
"e. c #494543",
"r. c #585445",
"t. c #545453",
"y. c #5D5D5D",
"u. c #595755",
"i. c #554F49",
"p. c #675A45",
"a. c #735E44",
"s. c #675A58",
"d. c #786348",
"f. c #67655B",
"g. c #726B4F",
"h. c #656461",
"j. c #6B6A66",
"k. c #6B6A68",
"l. c #76736D",
"z. c #797773",
"x. c #82142C",
"c. c #874C18",
"v. c #975717",
"b. c #87660C",
"n. c #897704",
"m. c #967808",
"M. c #956713",
"N. c #906E13",
"B. c #AD7D0D",
"V. c #83552C",
"C. c #985B20",
"Z. c #845B31",
"A. c #8D653A",
"S. c #956B3E",
"D. c #A96322",
"F. c #B66923",
"G. c #B57332",
"H. c #A35B1B",
"J. c #C57226",
"K. c #C16F24",
"L. c #866743",
"P. c #9B7345",
"I. c #977D59",
"U. c #8A7452",
"Y. c #867D6E",
"T. c #A37847",
"R. c #648535",
"E. c #718F3A",
"W. c #779042",
"Q. c #7CA047",
"!. c #888305",
"~. c #8C8D14",
"^. c #A98A07",
"/. c #B49707",
"(. c #B09306",
"). c #819B3B",
"_. c #AC8129",
"`. c #CD9007",
"'. c #D1AA02",
"]. c #EBC401",
"[. c #99845B",
"{. c #AF8B4E",
"}. c #8B8566",
"|. c #9B8B60",
" X c #9D9263",
".X c #87847E",
"XX c #9D8A74",
"oX c #A39867",
"OX c #A68D77",
"+X c #A39B74",
"@X c #AF916A",
"#X c #BBAE76",
"$X c #B5AB7B",
"%X c #C9AF4E",
"&X c #C29D6D",
"*X c #C9A777",
"=X c #C4B67C",
"-X c #C5B87E",
";X c #D6B17D",
":X c #CEA875",
">X c #DE974B",
",X c #98948C",
"<X c #9E9A91",
"1X c #8D8B88",
"2X c #A29D95",
"3X c #BC9F86",
"4X c #A7A39A",
"5X c #B6A888",
"6X c #ACAAA5",
"7X c #B3AEA4",
"8X c #BCB7AC",
"9X c #B5B5B4",
"0X c #CABD83",
"qX c #C7B980",
"wX c #DCB784",
"eX c #CEB58F",
"rX c #C6BCAC",
"tX c #D4C58B",
"yX c #D8CB97",
"uX c #DED29C",
"iX c #EECB96",
"pX c #E7C799",
"aX c #F0CE9B",
"sX c #E3D49C",
"dX c #E8C689",
"fX c #C2C1BD",
"gX c #CCC7BB",
"hX c #E6D8A4",
"jX c #F2D2A4",
"kX c #F4D8B3",
"lX c #F3DBB8",
"zX c #EDCFA3",
"xX c #ECE2AD",
"cX c #F0E7B1",
"vX c #F2E8B3",
"bX c #EFE5B1",
"nX c #FFE383",
"mX c #CCCCC8",
"MX c #D2CEC4",
"NX c #F6F5F5",
/* pixels */
"                                                                                                                                                                                    ",
"                                                                                                                                                                                    ",
"                                                                                                                                                                                    ",
"                                                                                                                                                                                    ",
"                                                                                                                                                                                    ",
"                                                                                                                                                                                    ",
"                                                                                                                                                                                    ",
"                                                                                                                                                                                    ",
"                                                                                                                                                                                    ",
"                                                                                                                                                                                    ",
"                                                                                                                                                                                    ",
"                                                                                                                                                                                    ",
"                                                                                                                                                                                    ",
"                                                                                                                                                                                    ",
"                                                                                                                                                                                    ",
"                                                                                                                                                                                    ",
"                                                                                                                                                                                    ",
"                                                                                                                                                                                    ",
"                                                                O O - s k t.k.                                                                                                      ",
"                                                        = O - s a O = a s l t.y.                                                                                                    ",
"                                                      - a = = a s f s x s s q.y.                                                                                                    ",
"                                  r.hX+Xg.          O = a a x x x s k w.w.s j t.y.z                                                                                                 ",
"                              . }.yXhXhXbX+X        - = a j j s q.l.1X<X2XY.z.t.t.q.=                                                                                               ",
"                              r.tX0XbXbXxXtX5X    - O a a j - l ,XgXMX6Xj.<XMXh.l y.-                                                                                               ",
"                            ; 0X-X0XxXyXxXvXvXvX3.= = a s j a 2XrXt.l.l.; k <Xf.s t.w.=                                                                                             ",
"                            $X X-X0XuXtXvXvXvXuXr.$ - s x l s .X7X= k ,Xy.= Y.k.s j t.q..                                                                                           ",
"                        . uXvX$X-X-X0XyXcXuXuX}.- - s s j j x w.7Xj 6XgXrX4X9Xk.x s t.y.w.                                                                                          ",
"                          bXvX#X X-XqXyXxXtXyXp.. - s x j j j l k.8XgXrX,X1X.Xa s s j y.y..                                                                                         ",
"                        vXvX0XxX#X=X=X-X-XyX}.= - s s j j j l x l y.2Xt.t.l l.7Xk.j d u.y.t.                                                                                        ",
"                        cXcXbX0X#X X=X#XtX}.= - a s j j l j j q.fX6Xl l h.8Xl.z 2Xt.s s y.y..                                                                                       ",
"                        g.hXqXqX=X#XoXtX+Xh O = s a j j j j l j l l y.9XW.j l ,X6Xq.s s y.y.y.                                                                                      ",
"                          yXxXxXuX#X[. Xg.% = s s x j j j j j q.mX2Xj l l j k s s s s x y.y.y.                                  l                                                   ",
"                          .  XoX X X X3.= = 8 s s s x j j j k ~ 1Xf g s s s s j j f j u.y.y.y.                                  k z.s                                               ",
"                          . . . . = = = = - s s a s s j j s s d a c g Q ~ ;.:.i.i.t.t.t.y.y.w.                                  w.mXfX                                              ",
"                          . O . O O = = - s s s s s s s - u u d : u 3.@X@XP.,.H r d s s y.y..                                 = w.6X1Xq.                                            ",
"                          O = = = = O - s s s s s - u u & < G Z F 5.&XiXwX4.d.5.* - s s y.l                                   j q.1XmX6X                                            ",
"                          a = = = - - s s s a u i Q 5.A.4.,X@XOXH S S.aXjX:XXXj . - s l k .                                 = q.l k.mXk.                                            ",
"                            = = = a s s d ~ a.,.J S.*XaX&XNXNXNX+ -.:XaXjXiXI.3.d.k s x .                                   s q.l k.fXh.                                            ",
"                            O = = - a - Q [.wXT.c.<.eXlXwXeXk.eX3.I.;XiXjX&XA.A.P.F D X                                   O l k f y.fXh.                                            ",
"                              = = = - = u I.;XS.$.J eXlXiXwX}.;X:XA.V.S.S.Z.O.O.+.v.H.K                                   - d f s u.fXh.                                            ",
"                                = = = = = g.aX{.$.J *XiXS.Z.Z.Z.V.P A ,.p.|.L.I C.J.F.K.                                . k z.f a u.mXy.                                            ",
"                                O = = = ..N._.G.$.A <.1.#.V V C %.A.I.}.|.,.I C K F.K.B                               q.j s u.l j h.mX9X                                            ",
"                                    = = &.`.%X{.$.P O.#.A %.%.%.1.P.*XG P V V V V %.J.                                q.8 q.q.l t.6XmX                                              ",
"                                        o * F 1.$.A A P %.$.$.$.P A +.P K %.K P J , #                               q.8 l q.q.l y.mXz.                                              ",
"                                            ! $.$.J < V C C C C V A @.J $.v.c.P J F.                              l q.q.q.q.q.t.9XmX                                                ",
"                                            $ D %.1 < #.$.$.C %.V J @.c.H.v.c.@.F.2                             f f s f k l k t.rX                                                  ",
"                                          x $ % $ $ B %.A $.A @.#.J $.C.D.D.D.<.F...                        f f f f f f s - k 9Xz..                                                 ",
"                                      6.' q q ( ( 0 q ..+.$.$.J $.%.#.c.c.D.D.D.X.E.              + # 8 9 , f k j f f 8 a f       .                                                 ",
"                                    } *.>.q / ( / q / ( e @.K ..$.$.C.F.G.>XG.S =.E.          # 2 F < & M 2.~ l q.l l q.                                                            ",
"                                  0 R.*.q / / ' w w ( _ !.O.# B N.1.<.c.{.nX9.o.y R.{ u # . i :.8 d.i.! ! 2.-.w.e.q.t.      .                                                       ",
"                                % w ( / t ( } 7.| ) _ ' [ !.M !.~.8.7 5 S `.&.e ( R.R.B v & ! |.Q *XkXXXD F 2.OX    . O                                                             ",
"                              % t ( ( ( ) / { | % ( ) ] ) / ( _ 7.8.7 M Z P $.< _ >._ n.v G ^ *X& a.Y.:.9 F ^ 5.                                                                    ",
"                              q ) ( ( t e % $ $ % 0 ( ] ( ( ] ' Q.8.6 9 B C H # { 9 0 (.n < F a.* :.a.3.i < i ,                                                                     ",
"                            . % ( e R.n. .+ # o % % [ ] ( [ ] ' Q.8.b.b. .1 r 2 y 9 + o.n . 2 , L.wXaXeXr.                                                                          ",
"                            $ e !.&.U c.Z v 4 4 4 + t 0 ( ] 7.' Q.m.U v.N.M X.U y u . < 3 @ & I.wXzX3Xs.                                                                            ",
"                          . n.n.Y L T T Y B.X.4 v v t 7 M M ] M <.B.b c.&.7 v.o.t 7.7.D 4.2 & :XyXU.k                                                                               ",
"                      . o.o.Z N n n n Y ^.%XwX3X0.T y m T T ( T N n.B (.(.m.X.t [ ] E.& ,.+ M d g =                                                                                 ",
"                      . 7 M , '.# b N b.5.dXaXaXp.e 6.` ..` *.E.9.M A (.X.=.&.e [ % 0./.G <.~ W Y '.                                                                                ",
"                        . 7 . ].X N m.;.tXkXaXa.% t _ ( [ [ ' Q.W.v 6 M 6 6 m R m m. .y # # E x.W *                                                                                 ",
"                          . 7 v M o.i wXkXkXkXvXs.v + . ) ( W.u T T T v 3 4 T M.^.r   . '.x.E .                                                                                     ",
"                            . v o.. u *XkXkXzXzX8 b.^.N R R n R b R T 7 @ @ . 3 6 R     ].X                                                                                         ",
"                              q..     &XpXiXd.  4 3 7 X . n./.(.&.. . @ 6 6 6 7 4 v                                                                                                 ",
"                                        a       c 3 5 6 6 v 6 6 R   X @ 4 4 3 4 6 :                                                                                                 ",
"                                                @ 3 3 5 5 6 @ 6 R     X 3 3 4 ,                                                                                                     ",
"                                                  @ @ 4 H @ 1 ! ^         , i I                                                                                                     ",
"                                                  . # , b.< ^ 2.V.<.        9 <.                                                                                                    ",
"                                                  . * 9 F ^ I G D g O       d i                                                                                                     ",
"                                                  s O + , < 2 > X             .                                                                                                     ",
"                                                                                                                                                                                    ",
"                                                                                                                                                                                    ",
"                                                                                                                                                                                    ",
"                                                                                                                                                                                    ",
"                                                                                                                                                                                    ",
"                                                                                                                                                                                    ",
"                                                                                                                                                                                    "
};
