/* XPM */
static char *b7e17a42e71f47fddc7651af8ae03209LLJRLiz6F95psE7S[] = {
/* columns rows colors chars-per-pixel */
"90 75 248 2 ",
"   c None",
".  c #030303",
"X  c #0B0402",
"o  c #040A03",
"O  c #0B0C0B",
"+  c #0A0A07",
"@  c #140202",
"#  c #1A0303",
"$  c #150B03",
"%  c #1C0C03",
"&  c #170E0B",
"*  c #041200",
"=  c #0C120C",
"-  c #0C1802",
";  c #181607",
":  c #141414",
">  c #1D1D1D",
",  c #171A15",
"<  c #210206",
"1  c #2C0109",
"2  c #260A04",
"3  c #33010C",
"4  c #3D0C0A",
"5  c #38050B",
"6  c #241303",
"7  c #2B1404",
"8  c #27160A",
"9  c #361707",
"0  c #231C17",
"q  c #391F11",
"w  c #0D2200",
"e  c #122401",
"r  c #142803",
"t  c #1C3C00",
"y  c #173500",
"u  c #1A241A",
"i  c #282704",
"p  c #3B2408",
"a  c #283702",
"s  c #26241A",
"d  c #372618",
"f  c #2B3509",
"g  c #232323",
"h  c #292524",
"j  c #2C2C2C",
"k  c #2A2826",
"l  c #332F29",
"z  c #343433",
"x  c #3D3C3C",
"c  c #383837",
"v  c #2D3926",
"b  c #46050E",
"n  c #46170A",
"m  c #4B0111",
"M  c #560013",
"N  c #5A0512",
"B  c #530911",
"V  c #541618",
"C  c #64180F",
"Z  c #472607",
"A  c #552300",
"S  c #5D2B03",
"D  c #532A0A",
"F  c #562907",
"G  c #493805",
"H  c #593508",
"J  c #5B3517",
"K  c #4A2B13",
"L  c #622E04",
"P  c #68240D",
"I  c #6D3B09",
"U  c #663706",
"Y  c #763C0B",
"T  c #643715",
"R  c #733112",
"E  c #740228",
"W  c #453728",
"Q  c #593B27",
"!  c #7A263F",
"~  c #1F4200",
"^  c #224501",
"/  c #2A4D04",
"(  c #264705",
")  c #354805",
"_  c #2C5200",
"`  c #2F530B",
"'  c #325A00",
"]  c #32560A",
"[  c #324B14",
"{  c #2A4427",
"}  c #394635",
"|  c #37583A",
" . c #3D610B",
".. c #584105",
"X. c #4C480F",
"o. c #644805",
"O. c #76430B",
"+. c #7A450B",
"@. c #7D4A0D",
"#. c #724B07",
"$. c #665701",
"%. c #69441E",
"&. c #74451B",
"*. c #775B0A",
"=. c #486A1C",
"-. c #776E00",
";. c #494339",
":. c #4D5231",
">. c #694725",
",. c #774B27",
"<. c #68553C",
"1. c #795838",
"2. c #71542E",
"3. c #496522",
"4. c #57712E",
"5. c #6D7A35",
"6. c #6F6238",
"7. c #3F6343",
"8. c #4D4C4C",
"9. c #464745",
"0. c #514E4B",
"q. c #534B45",
"w. c #575649",
"e. c #545454",
"r. c #5C5C5C",
"t. c #5B5957",
"y. c #4A5D42",
"u. c #6D5B41",
"i. c #6D5B50",
"p. c #5D6A4A",
"a. c #47704C",
"s. c #567C49",
"d. c #75674A",
"f. c #62615C",
"g. c #6C7658",
"h. c #656462",
"j. c #6B6965",
"k. c #76746C",
"l. c #7A7976",
"z. c #716E68",
"x. c #82002D",
"c. c #83271D",
"v. c #85480C",
"b. c #995611",
"n. c #8C550E",
"m. c #A25C14",
"M. c #886706",
"N. c #877600",
"B. c #937902",
"V. c #926609",
"C. c #A96216",
"Z. c #B76918",
"A. c #B47E09",
"S. c #84552A",
"D. c #85562D",
"F. c #89623A",
"G. c #946939",
"H. c #9D7730",
"J. c #AF732E",
"K. c #C5721B",
"L. c #813C40",
"P. c #877859",
"I. c #997C56",
"U. c #926F45",
"Y. c #897D65",
"T. c #A47740",
"R. c #5B8023",
"E. c #758838",
"W. c #6A8A33",
"Q. c #7B9E41",
"!. c #7EA243",
"~. c #7F9776",
"^. c #888703",
"/. c #9B8209",
"(. c #AA8902",
"). c #B29900",
"_. c #B28B08",
"`. c #959E28",
"'. c #C89304",
"]. c #D6AD02",
"[. c #E1BE03",
"{. c #E7C100",
"}. c #98855C",
"|. c #9E925F",
" X c #AF8A4D",
".X c #898566",
"XX c #98876A",
"oX c #9E9362",
"OX c #85827C",
"+X c #969170",
"@X c #A68C69",
"#X c #A49968",
"$X c #BC9967",
"%X c #B2957A",
"&X c #A4A27A",
"*X c #BDAF77",
"=X c #CAB14B",
"-X c #C39E6E",
";X c #CAA879",
":X c #C6B87E",
">X c #C2B57B",
",X c #D7B47F",
"<X c #CFA873",
"1X c #E09843",
"2X c #8B8A88",
"3X c #99958D",
"4X c #979893",
"5X c #918E88",
"6X c #A19D95",
"7X c #A8A59B",
"8X c #B4B08B",
"9X c #AAA9A5",
"0X c #B2AEA6",
"qX c #BBB6AC",
"wX c #B8B8B6",
"eX c #CABC83",
"rX c #C6BA84",
"tX c #DAB885",
"yX c #CBB191",
"uX c #C2BDB4",
"iX c #BAC4BA",
"pX c #D8CA94",
"aX c #DDD29A",
"sX c #CEC28E",
"dX c #E9C997",
"fX c #F0CE99",
"gX c #E4D49D",
"hX c #F0D09E",
"jX c #E8C88B",
"kX c #FFE182",
"lX c #C7C5BE",
"zX c #D6CEA9",
"xX c #E6D9A4",
"cX c #F2D3A4",
"vX c #F4DAB4",
"bX c #F0DBB9",
"nX c #EED5AC",
"mX c #ECE3AE",
"MX c #E7E0AD",
"NX c #EEE7B2",
"BX c #F2EAB5",
"VX c #F0E7B2",
"CX c #C9C8C5",
"ZX c #D5CFC3",
"AX c #D1D0CD",
"SX c #D4D4D1",
"DX c #F6F5F5",
"FX c #F3E1C2",
/* pixels */
"                                                                                                                                                                                    ",
"                                                                                                                                                                                    ",
"                                                                                                                                                                                    ",
"                                                                                                                                                                                    ",
"                                                                                                                                                                                    ",
"                                                                                                                                                                                    ",
"                                                                                                                                                                                    ",
"                                                                                                                                                                                    ",
"                                                                                                                                                                                    ",
"                                                                                                                                                                                    ",
"                                                                                                                                                                                    ",
"                                                                                                                                                                                    ",
"                                                                                                                                                                                    ",
"                                                                                                                                                                                    ",
"                                                                                                                                                                                    ",
"                                                                                                                                                                                    ",
"                                                                                                                                                                                    ",
"                                                                                                                                                                                    ",
"                                                                                                      9.e.j > : + . O                                                               ",
"                                                                                                    c e.z > : O + > > : . O                                                         ",
"                                                                                                  c t.} > g g g g g > O O > O               ~.*X}                                   ",
"                                                                                                c r.e.k > 9.8.z g g k g > > O +           .XrXmX.X}                                 ",
"                                                                                              : 9.e.e.z.l.6X6XY.z.c > j g > O O u   { u &XBXMXxXaXoXu                               ",
"                                                                                            . : e.j r.ZX3Xh.9XZXZX4Xc : j > , . * p.3X.XsXmXVXBXsXpX+X                              ",
"                                                                                            O 9.0.> f.3Xk + k.j.8.qX6Xg j > > O + w.BXBXBXVXaXmXsX:XpXu                             ",
"                                                                                          + 9.e.j g h.l.. w.3Xl . 0X2X0 j k > : . ;.gXBXBXBXsXaXeX:X|.&XzX                          ",
"                                                                                          8.r.e.g g h.wX6XuXlX9Xk 0X9.k j j > > : O .XaXxXBXpXsX:X:X*XNXMX                          ",
"                                                                                        . r.r.k g g g Y.5X3XuXlXqXh.z j j j j > , . :.aXaXgXpXeX:X#X:XBXBXzX                        ",
"                                                                                        e.r.t.> h j.0Xk.z 8.9.9Xh.z j j j j j > > : + Y.aX:X:X:X:X>XmXeXBXNX                        ",
"                                                                                      . r.r.g > 8.6Xz k.wXh.j z 7XCXx j z j j j > > : . .XpX:X:X|.>XeXVXBXBX                        ",
"                                                                                      r.r.r.> g x 0X5Xz j Y.uXt.z z j z j j j j > > : . f #X:X|.>X:X:XeXMXr.                        ",
"                                                  .                                   r.r.r.g > > > g j j j j l 6XlXx z j z j j j > > = . d.|.|.*XgXmXmXsX+                         ",
"                                              j l.h                                 . e.r.r.e.j j j k g > > > 0 j 5Xc j j j j j > > > : . . :.oX#X#X#XoX.                           ",
"                                            O OXCX9.                                  8.r.r.e.e.8.0.q.;.W W l s , , , u > j h > > > > > : . . . . . . . . .                         ",
"                                            9.5X0Xx O                                 = r.r.k > , 9 Z T I.$X-X<.0 $ 0 0 , : > > > g > 0 > : . . . . . . .                           ",
"                                            4XAX2Xx j                                   x r.> > , $ 2.1.S.;XfX-X>.F F F 7 % 0 0 , > > > > g : . . . . . .                           ",
"                                            j.CXh.c x >                                 , c c > , . c XX<XcXhXF.F Z %X%X@X1.F.>.W q 0 > g > > : . . . . .                           ",
"                                            h.CXh.c x g                                   u j > l d.<.I.fXnXfX<XJ X DXDXDX-XhX;XG.U T u.l , > > , . . . =                           ",
"                                            h.uXt.k z c O                                   X p J G.F.F.-XcXfX,X}.<.yXz.yXtXvXyX&.v.J.tXI.d O > : . . .                             ",
"                                            h.CX8.> h g >                                   I C.v.Y Y I S.G.G.S.D.<X,X@XtXfXvXyXJ v.H.,XP., . O . . .                               ",
"                                            h.CX8.> h l.l +                                 K.Z.K.b.U F.@Xu.%.S I S.D.D.D.F.hX;XL @. XcXi.. . . . .                                 ",
"                                            l.AXr.j c e.> j .                               Z K.Z.L A J >.I.Y.I.G.+.A A A O.,.T L @._.H.M.G . . . .                                 ",
"                                            wXSX9X8.c x x : z                               :.K.v.A A A A J J ;XH.@.O.O.O.S @.Y U @. X=X'.o.. . .                                   ",
"                                            u l.lXr.z x x c & x                               $ % S I L +.L U I F U @.v.@.@.I A L v.n.G $ X                                         ",
"                                              2XSXwX8.x x W x x 9.                              Z.L I v.m.@.L I S A A A A A n 2 L @.@.p ,                                           ",
"                                                = 2Xe.j x j h h g k                             9 Z.Y v.b.b.v.Y S A +.A @.@.O.7 8 #.Z u                                             ",
"                                                . 2XwXc O g g g h h > O                         X.Z.@.m.C.C.b.@.S +.O.A @.S O.p * o * o . v |                                       ",
"                                                . 4XCXwXc j : j k j k h 6 2 @ X X             s.W.o.m.Z.Z.@.n.O.+.@.S @.@.I ..- w ~ ~ r w ^ e {                                     ",
"                                                  . 9X9XCXwX8.8.z c j Q ,.n # 9 K 9 #         :.`.-.H J.1XZ.Z.b.@.@.U H I i ~ t - t ~ ~ w |  .` {                                   ",
"                                                      O CXCX2Xl.h.r.9.T ,.D Q ;.p.s J 7 . X . [ 4.f $.6.kX Xv.O.*.V.G % I ^.^ ~ w r ` y t w 3.W.r                                   ",
"                                                            . > wX9X3XS.D n @XbX;XW @XJ 6 5 f W.W.^ a #.'.H 2 3 5./.^.9 ^._ _ / ^ f 3.` ~ y ~ ~ r *                                 ",
"                                                                  p.u.T D 9 ;.Y.d.: ;XT D m B.( 3.f i v.O.S b 3 s.R./ a ~ ~ ' ^ t * f [ t ^ ~ ~ ~ r *                               ",
"                                                                    0 p 7 d <.u.>.& u.D 7 N ).e 8 [ $ D H n 4 1 5.!./ ' ~ ~ ' ^ w * o . - e t t ~ ~ * =                             ",
"                                                                        u k.dXgXtXd.6 7 . N $.X 4 i 4 i ; ..*.n.W.!./ ' / ~ ' / * * o . X X.-.-.r t * .                             ",
"                                                                          ~.z.8XhXtXI.& # < 6 + ; f R +.n V.V.v./.`.` 3.' ~ r ~ X < < 3 m P v.v.*.N.r X                             ",
"                                                                            } x P.dX;X& 7 1.p 4.3.( $.V.3 *.v.M A.>.n ` n n 5 a b m 3 o._.P M N P Y N.N.=                           ",
"                                                                                s l d p X T ; W.] / a o./.)._.p N.C N ( M N B a M L.yXtX=X(.P M M M P F o.$.o                       ",
"                                                                                ).c.E d 2.D '.! w ' i #.*.$.).H 4 5.E.] ) ) f 3.; <.jXfXjX2.N.P M # '.$ n 9 .                       ",
"                                                                                ; E x.E & X 9 H B.B N b 4 2 4 5 m Q.Q.( / ' ^ / r - d.hXmXdX;.B.C X {.. 3 X                         ",
"                                                                                    @ E E [.+ | i (.V.M 1 < m M M M + Q.^ / . @ m i.FXvXbXvXtXd $.4 b 3 .                           ",
"                                                                                        . [.a.y.M 3 < . # @ 3 M M N N N N M C (.N.w.bXnXvXbX;Xs . *.5 .                             ",
"                                                                                          . 7.y.b # 3 1 3 3 @ . . *.(.).B.. X 1 # s v d.jXtX$Xg.  . .                               ",
"                                                                                          . .   $ 2 # # < < @ + + b 3 3 5 3 3 1 @ @ u a.u . {                                       ",
"                                                                                                  , # % # % + } a.V 3 @ 1 1 1 # # &                                                 ",
"                                                                                                  & J n 8       p.T K 6 @ Z < @ X =                                                 ",
"                                                                                                  8 %.6 O       2.,.S.R 9 N.% X .                                                   ",
"                                                                                                  , 8 $       + q n D T J D 4 X +                                                   ",
"                                                                                                    +           O . 2 7 7 6 @ . X                                                   ",
"                                                                                                                  = = = = = =                                                       ",
"                                                                                                                                                                                    ",
"                                                                                                                                                                                    ",
"                                                                                                                                                                                    ",
"                                                                                                                                                                                    ",
"                                                                                                                                                                                    ",
"                                                                                                                                                                                    "
};
