/* XPM */
static char *result[] = {
/* columns rows colors chars-per-pixel */
"60 60 183 2 ",
"   c #010101",
".  c #0D0403",
"X  c #0A0807",
"o  c #060609",
"O  c #07080B",
"+  c #0B0B0C",
"@  c #110606",
"#  c #170C0D",
"$  c #13120E",
"%  c #1A120F",
"&  c #0C0D13",
"*  c #0F1118",
"=  c #131313",
"-  c #191512",
";  c #1B1A15",
":  c #1A1B1A",
">  c #11131C",
",  c #260707",
"<  c #28130E",
"1  c #221713",
"2  c #391A18",
"3  c #360806",
"4  c #24231C",
"5  c #2F2B1F",
"6  c #171B25",
"7  c #1E222F",
"8  c #1F2532",
"9  c #222221",
"0  c #2B2C2B",
"q  c #2B2925",
"w  c #3A3527",
"e  c #313231",
"r  c gray23",
"t  c #3E3B30",
"y  c #3E2638",
"u  c #4E1416",
"i  c #41181E",
"p  c #591A1D",
"a  c #760F0D",
"s  c #7D100E",
"d  c #661215",
"f  c #741A14",
"g  c #73231F",
"h  c #451B23",
"j  c #561B23",
"k  c #611C24",
"l  c #492428",
"z  c #5C242A",
"x  c #4F332C",
"c  c #403D32",
"v  c #67262E",
"b  c #79232C",
"n  c #64312A",
"m  c #743024",
"M  c #672B32",
"N  c #7C2D38",
"B  c #792F39",
"V  c #7A313A",
"C  c #77343E",
"Z  c #3F403A",
"A  c #524F3F",
"S  c #5F563D",
"D  c #77433C",
"F  c #2D2F46",
"G  c #2C3348",
"H  c #36374E",
"J  c #363A54",
"K  c #323750",
"L  c #503C51",
"P  c #6A3545",
"I  c #633042",
"U  c #743F43",
"Y  c #7A3D53",
"T  c #3A415D",
"R  c #3D4360",
"E  c #3F4A65",
"W  c #434343",
"Q  c #4B4C48",
"!  c #534F40",
"~  c #5E435E",
"^  c #5C5C5C",
"/  c #5D5947",
"(  c #74484A",
")  c #71425D",
"_  c #6E5A56",
"`  c #6C5E59",
"'  c #705250",
"]  c #7F5850",
"[  c #5E6057",
"{  c #63655D",
"}  c #6A645D",
"|  c #6F6A56",
" . c #7C765F",
".. c #414B67",
"X. c #454A69",
"o. c #4A4660",
"O. c #5C4C6B",
"+. c #574E6F",
"@. c #484E71",
"#. c #495174",
"$. c #4C5478",
"%. c #51557A",
"&. c #676960",
"*. c #686A61",
"=. c #626262",
"-. c #7F7962",
";. c #777777",
":. c #A41512",
">. c #811D23",
",. c #812124",
"<. c #8C2226",
"1. c #87262D",
"2. c #972429",
"3. c #9C2C39",
"4. c #9E2A36",
"5. c #973433",
"6. c #AC242B",
"7. c #AA2A2E",
"8. c #A32429",
"9. c #AA2E31",
"0. c #B22B3B",
"q. c #A93334",
"w. c #A43B3A",
"e. c #A73637",
"r. c #D91515",
"t. c #C9231D",
"y. c #D72F24",
"u. c #EF2D24",
"i. c #EE3127",
"p. c #F33227",
"a. c #F13C2F",
"s. c #A4423F",
"d. c #E84A39",
"f. c #F04132",
"g. c #EB523E",
"h. c #8D3444",
"j. c #913140",
"k. c #8E4D44",
"l. c #9E554B",
"z. c #9C594F",
"x. c #835751",
"c. c #9B5E51",
"v. c #A34541",
"b. c #A14B45",
"n. c #B4564A",
"m. c #996557",
"M. c #956D5C",
"N. c #986859",
"B. c #827654",
"V. c #95705E",
"C. c #80527A",
"Z. c #827E69",
"A. c #847A64",
"S. c #917C66",
"D. c #DF7656",
"F. c #868169",
"G. c #8D876D",
"H. c #8A846A",
"J. c #978A65",
"K. c #9E9473",
"L. c #AB9B6E",
"P. c #AD9F78",
"I. c #A99872",
"U. c #B49D71",
"Y. c #AFA179",
"T. c #B4A57A",
"R. c #BDAB7C",
"E. c #B4A274",
"W. c #DB805E",
"Q. c #D98762",
"!. c #C2936A",
"~. c #D4976D",
"^. c #C1AE7C",
"/. c #CDAF7D",
"(. c #D0A375",
"). c #CCB17F",
"_. c #565A86",
"`. c #595D8A",
"'. c #5F6394",
"]. c #616293",
"[. c #C4B180",
"{. c #CAB682",
"}. c None",
/* pixels */
"}.}.}.}.}.}.}.}.}.}.}.}.}.}.}.}.}.}.}.}.}.}.}.}.}.}.}.}.}.}.}.}.}.}.}.}.}.}.}.}.}.}.}.}.}.}.}.}.}.}.}.}.}.}.}.}.}.}.}.}.",
"}.}.}.}.}.}.}.}.}.}.}.}.}.}.}.}.}.}.}.}.}.}.}.}.}.}.}.}.}.}.}.}.}.}.}.}.}.}.}.}.}.}.}.}.}.}.}.}.}.}.}.}.}.}.}.}.}.}.}.}.",
"}.}.}.}.}.}.}.}.}.}.}.}.}.}.}.}.}.}.}.}.}.}.}.}.}.}.}.}.}.}.}.}.}.}.}.}.}.}.}.}.}.}.}.}.}.}.}.}.}.}.}.}.}.}.}.}.}.}.}.}.",
"}.}.}.}.}.}.}.}.}.}.}.}.}.}.}.}.}.}.}.}.}.}.}.}.}.}.}.}.}.}.}.}.}.}.}.}.}.}.}.}.}.}.}.}.}.}.}.}.}.}.}.}.}.}.}.}.}.}.}.}.",
"}.}.}.}.}.}.}.}.}.}.}.}.}.}.}.}.}.}.}.}.}.}.}.}.}.}.}.}.}.}.}.}.}.}.}.}.}.}.}.}.}.}.}.}.}.}.}.}.}.}.}.}.}.}.}.}.}.}.}.}.",
"}.}.}.}.}.}.}.}.}.}.}.}.}.}.}.}.}.}.}.}.}.}.}.}.}.}.}.}.}.}.}.}.}.}.}.}.}.}.}.}.}.}.}.}.}.}.}.}.}.}.}.}.}.}.}.}.}.}.}.}.",
"}.}.}.}.}.}.}.}.}.}.}.}.}.}.}.}.}.}.}.}.}.}.}.}.}.}.}.}.}.}.}.}.}.}.}.}.}.}.}.}.}.}.}.}.}.}.}.}.}.}.}.}.}.}.}.}.}.}.}.}.",
"}.}.}.}.}.}.}.}.}.}.}.}.}.}.}.}.}.}.}.}.}.}.}.}.}.}.}.}.}.}.}.}.}.}.}.}.}.}.}.}.}.}.}.}.}.}.}.}.}.}.}.}.}.}.}.}.}.}.}.}.",
"}.}.}.}.}.}.}.}.}.}.}.}.}.}.}.}.}.}.}.}.}.}.}.}.}.}.}.}.}.}.}.}.}.}.}.}.}.}.}.}.}.}.}.}.}.}.}.}.}.}.}.}.}.}.}.}.}.}.}.}.",
"}.}.}.}.}.}.}.}.}.}.}.}.}.}.}.}.}.}.}.}.}.}.}.}.}.}.}.}.}.}.}.}.}.}.}.}.}.}.}.}.}.}.}.}.}.}.}.}.}.}.}.}.}.}.}.}.}.}.}.}.",
"}.}.}.}.}.}.}.}.}.}.}.}.}.}.}.}.}.}.}.}.}.}.}.}.}.}.}.}.}.}.}.}.}.}.}.}.}.}.}.}.}.}.}.}.}.}.}.}.}.}.}.}.}.}.}.}.}.}.}.}.",
"}.}.}.}.}.}.}.}.}.}.}.}.}.}.}.}.}.}.}.}.}.}.}.}.}.}.}.}.}.}.}.}.}.}.}.}.}.}.}.}.}.}.}.}.}.}.}.}.}.}.}.}.}.}.}.}.}.}.}.}.",
"}.}.}.}.}.}.}.}.}.}.}.}.}.}.}.}.}.}.}.}.}.}.}.}.}.}.}.}.}.}.}.}.}.}.}.}.}.}.}.}.}.}.}.}.}.}.}.}.}.}.}.}.}.}.}.}.}.}.}.}.",
"}.}.}.}.}.}.}.}.}.}.}.}.}.}.}.}.}.}.}.}.}.}.}.}.}.}.}.}.}.}.}.}.}.}.}.}.}.}.}.}.}.}.}.}.}.}.}.}.}.}.}.}.}.}.}.}.}.}.}.}.",
"}.}.}.}.}.}.}.}.}.}.}.}.}.}.}.}.}.}.}.}.}.}.}.}.}.}.}.}.}.}.}.  }.}.}.}.}.}.}.}.}.}.}.}.}.}.}.}.}.}.}.}.}.}.}.}.}.}.}.}.",
"}.}.}.}.}.}.}.}.}.}.}.}.}.}.}.}.}.}.}.}.}.}.}.}.}.}.}.}.}.r @ s = }.}.}.}.}.}.}.}.}.}.}.}.}.}.}.}.}.}.}.}.}.}.}.}.}.}.}.",
"}.}.}.}.}.}.}.}.}.}.}.}.}.}.}.}.}.}.}.}.}.}.}.}.}.}.}.}.}.+ d r.o }.}.}.}.}.}.}.}.}.}.}.}.}.}.}.}.}.}.}.}.}.}.}.}.}.}.}.",
"}.}.}.}.}.}.}.}.}.}.}.}.}.}.}.}.}.}.}.}.}.}.}.}.}.}.}.}.}.  2.6.  }.}.}.}.}.}.}.}.}.}.}.}.}.}.}.}.}.}.}.}.}.}.}.}.}.}.}.",
"}.}.}.}.}.}.}.}.}.}.}.}.}.}.}.}.}.}.}.}.}.}.}.}.}.}.}.}.}.  6.6.  }.}.}.}.}.}.}.}.}.}.}.}.}.}.}.}.}.}.}.}.}.}.}.}.}.}.}.",
"}.}.}.}.}.}.}.}.}.}.}.}.}.}.}.}.}.}.}.}.}.}.}.}.}.}.}.}.}.  6.6.  }.}.}.}.}.}.}.}.}.}.}.}.}.}.}.}.}.}.}.}.}.}.}.}.}.}.}.",
"}.}.}.}.}.}.}.}.}.}.}.}.}.}.}.}.}.}.}.}.}.}.}.}.}.}.}.}.}.  6.6.  }.}.}.}.}.}.}.}.}.}.}.}.}.}.}.}.}.}.}.}.}.}.}.}.}.}.}.",
"}.}.}.}.}.}.}.}.}.}.}.}.}.}.}.}.}.}.}.}.}.}.}.}.}.}.}.}.}.  6.6.f - }.}.}.}.}.}.}.}.}.}.}.}.}.}.}.}.}.}.}.}.}.}.}.}.}.}.",
"}.}.}.}.}.}.}.}.}.}.}.}.}.}.}.}.}.}.}.}.}.}.}.}.}.}.}.}.}.  7.6.y.  }.}.}.}.}.}.}.}.}.}.}.}.}.}.}.}.}.}.}.}.}.}.}.}.}.}.",
"}.}.}.}.}.}.}.}.}.}.}.}.}.}.}.}.}.}.}.}.}.}.}.}.}.}.}.}.}.  u 7.p.  }.}.}.}.}.}.}.}.}.}.}.}.}.}.}.}.}.}.}.}.}.}.}.}.}.}.",
"}.}.}.}.}.}.}.}.}.}.}.}.}.}.}.}.}.}.}.}.}.}.}.}.}.}.}.}.  g q.q.a.  }.}.}.}.}.}.}.}.}.}.}.}.}.}.}.}.}.}.}.}.}.}.}.}.}.}.",
"}.}.}.}.}.}.}.}.}.}.}.}.}.}.}.}.}.}.}.}.}.}.}.}.}.}.}.}.  5.w.e.p.  }.}.}.}.}.}.}.}.}.}.}.}.}.}.}.}.}.}.}.}.}.}.}.}.}.}.",
"}.}.}.}.}.}.}.}.}.}.}.}.}.}.}.}.}.}.}.}.}.}.}.}.}.}.}.}.  w.s.e.g.3 r }.}.}.}.}.}.}.}.}.}.}.}.}.}.}.}.}.}.}.}.}.}.}.}.}.",
"}.}.}.}.}.}.}.}.}.}.}.}.}.}.}.}.}.}.  }.}.}.}.}.}.}.}.}.  s.v.e.D.:.X }.}.}.}.}.}.}.}.}.}.}.}.}.}.}.}.}.}.}.}.}.}.}.}.}.",
"}.}.}.}.}.}.}.}.}.}.}.}.}.}.}.}.}.}.    }.}.}.}.}.}.}.}.  b.l.b.{.a.  }.}.}.}.}.}.}.}.}.}.}.}.}.}.}.}.}.}.}.}.}.}.}.}.}.",
"}.}.}.}.}.}.}.}.}.}.}.}.}.}.}.}.}.}.    }.}.}.}.}.}.}.:   l.M.v.).t.  }.}.}.}.}.}.}.}.}.}.}.}.}.}.}.}.}.}.}.}.}.}.}.}.}.",
"}.}.}.}.}.}.}.}.}.}.}.}.}.}.}.}.}.}.  .   }.}.}.}.}.}.+ . c.G.b.~.  - }.}.}.}.}.}.}.}.}.}.}.}.}.}.}.}.}.}.}.}.}.}.}.}.}.",
"}.}.}.}.}.}.}.}.}.}.}.}.}.}.}.}.}.}.  v   }.}.}.}.}.}.O X M.G.z.!.m   }.}.}.}.}.}.}.}.}.}.}.}.}.}.}.}.}.}.}.}.}.}.}.}.}.",
"}.}.}.}.}.}.}.}.}.}.}.}.}.}.}.}.}.}.  v     }.}.}.}.}.  - m.G.G.{.p.  }.}.}.}.}.}.}.}.}.}.}.}.}.}.}.}.}.}.}.}.}.}.}.}.}.",
"}.}.}.}.}.}.}.}.}.}.}.}.}.}.}.}.}.}.  z <.  }.}.}.}.}.  c N.G.G.{.a.  }.}.}.}.}.}.}.}.}.}.}.}.}.}.}.}.}.}.}.}.}.}.}.}.}.",
"}.}.}.}.}.}.}.}.}.}.}.}.}.}.}.}.}.}.  z 6.  + }.}.}.}.  B.G.G.V.{.Q.  }.}.: q }.}.}.}.}.}.}.}.}.}.}.}.}.}.}.}.}.}.}.}.}.",
"}.}.}.}.}.}.}.}.}.}.}.}.}.}.}.}.}.}.  l N u   }.}.}.}.  F.G.G.b.{.Q.1 ^ }.  ,   }.}.}.}.}.}.}.}.}.}.}.}.  }.}.}.}.}.}.}.",
"}.}.}.}.}.}.}.}.}.}.}.}.}.}.}.}.}.}.9   N 4.  }.}.}.}.  H.G.G.w.{./.S .   2.6.2.}.}.}.}.}.}.}.}.}.}.}.    }.}.}.}.}.}.}.",
"}.}.}.}.}.}.}.}.}.}.}.}.}.}.}.}.}.}.}.  B C . 9 }.}.}.0 - G.G.q.{.{.J.    B N 2.}.}.}.}.}.}.}.}.}.}.9 d e }.}.}.}.}.}.}.",
"}.}.}.}.}.}.}.}.}.}.}.}.}.}.}.}.}.}.}.  B B 1.  }.}.}.  u G.G.l.{.{.^.  h B B <.}.}.}.}.}.}.}.}.}.}.  @ }.}.}.}.}.}.}.}.",
"}.}.}.}.}.}.}.}.}.}.}.}.}.}.}.}.}.}.}.  V D b.  }.}.9   q.G.G.G.{.{.{.  U ` ( b Q }.}.}.}.}.}.}.}.  8.  }.}.}.}.}.}.}.}.",
"}.}.}.}.}.}.}.}.}.}.}.}.}.}.}.}.}.}.}.  M ( x.  e }.o < b.G.G.G.{.{.Q.  Q ` ' p }.}.}.}.}.}.}.}.}., >.e }.}.}.}.}.}.}.}.",
"}.}.}.}.}.}.}.}.}.}.}.}.}.}.}.}.}.}.}.  l C Q $   }.  D b.G.G.G.{.{.(.w ; } x.2 }.}.}.}.}.}.}.}.  u.  }.}.}.}.}.}.}.}.}.",
"}.}.}.}.}.}.}.}.}.}.}.}.}.}.}.}.}.}.}.= % U } F.  =   S.M.G.G.[.{.{.~.R.  *.z.% }.}.}.}.}.}.}.=.a n.  }.}.}.}.}.}.}.}.}.",
"}.}.}.}.}.}.}.}.}.}.}.}.}.}.}.}.}.}.}.-   } ' }  .    G.H.G.G.{.{.{.(.{.  { H.  }.}.}.}.}.}.}.  g.D ;.}.}.}.}.}.}.}.}.}.",
"}.}.}.}.}.}.}.}.}.}.}.}.}.}.}.}.}.}.}.}.  _ *.&.-.o   G.G.G.G.{.{.{.{.{.X W G.  }.}.}.}.}.}.}.< d.: }.}.}.}.}.}.}.}.}.}.",
"}.}.}.}.}.}.}.}.}.}.}.}.}.}.}.}.}.}.}.}.  ` ` ` *.X w G.G.G.G.{.{.{.{.{.B.+ F.  }.}.}.}.}.}.o n m.  }.}.}.}.}.}.}.}.}.}.",
"}.}.}.}.}.}.}.}.}.}.}.}.}.}.}.}.}.}.}.}.  _ *.' &.  | G.G.G.G.{.{.{.{.{.^.  F.  }.}.}.}.}.+ U.z.k.Q }.}.}.}.}.}.}.}.}.}.",
"}.}.}.}.}.}.}.}.}.}.}.}.}.}.}.}.}.}.}.}.  } *.*.&.  G.G.G.G.G.{.{.{.{.{.{.  -.  }.}.}.}.}.o {.S.2 }.}.}.}.}.}.}.}.}.}.}.",
"}.}.}.}.}.}.}.}.}.}.}.}.}.}.}.}.}.}.e }.  *.&.*.[   G.G.G.G.K.{.{.{.{.{.R.  -.  }.}.}.}.  L.G.M.  }.}.}.}.}.}.}.}.}.}.}.",
"}.}.}.}.}.}.}.  1 }.}.}.}.}.}.}.}.}.9     *.' *.e . G.G.G.G.T.{.{.{.{.{.{.5 :   }.}.}.W w {.G.X e }.}.}.}.$ X }.}.}.}.}.",
"}.}.}.}.}.}.=               0 }.}.}.      ` *.*.o 4 G.G.G.G.T.{.G.{.{.{.{.L.    }.}.}.  {.I.G.z.9 }.}.r     =.}.}.}.}.}.",
"}.}.}.}.}.    i 1.                }.      &.*.*.  / G.G.G.G.{.R.G.Y.{.{.{.{.      = = J.{.z.G.x }.}.o   b   }.}.}.}.}.}.",
"}.}.}.}.}.e     j 3.h.j.h.4.1.    o p h   { *.*.  F.G.G.G.G.{.G.- G.{.Y.G.{.  l ~ X   {.^.G.S.  }.  . 6.  }.}.}.}.}.}.}.",
"}.}.}.}.}.}.}.    P O.O.$.+.Y   @.P ) '.`.  &.{   G.G.G.G.G.P.;   G.G.A       8 #.  E.{.S.G.H.    >.6.b   }.}.}.}.}.}.}.",
"}.}.}.}.}.}.}.}.    o.....$.$.o $.$.'.'.'.  &.r   G.G.G.G.G.G.# & A   0.) y $ E $.  {.{.G.G.A.k 3.B N + }.}.}.}.}.}.}.}.",
"}.}.}.}.}.}.}.}.e   E E ....@.* $.$.$.'.'.. *.:   G.G.G.G.Y.4 _._.H +.$._.- H.G ..J.{.G.G.N.4 #.N P C L   }.}.}.}.}.}.}.",
"}.}.}.}.}.}.}.}.}.  6 ..E ..E * J $._.'.'.$.0 X   G.G.G.G.T.+ $.'.$.$.$.`.4 G.o O G.G.H.H.G.  ..X.o.P ..8   }.}.}.}.}.}.",
"}.}.}.}.}.}.}.}.}.  o   E R ..* J $.$.'.$.'.  o 4 G.G.F.q   7 $.'.$.$.$.'.  o $ 4 H.G.H.c F.& O o     o G   }.}.}.}.}.}.",
"}.}.}.}.}.}.}.W     $.J   >   F $.$.$.$.$.$.J         O T $.$.$.$.$.$.$.$.$.$.J o     o J o o `.'.'.'.#.    }.}.}.}.}.}.",
"}.}.}.}.}.}.    6 $.$.$.$.$.$.$.$.$.$.$.$.$.$.o _.$.$.$.$.$.$.$.$.$.$.$.$.$.$.$.$.$.$.$.$.$.$.$.`.$.#.`.`.F   }.}.}.}.}."
};
